<?xml version="1.0" encoding="UTF-8" standalone="no"?><!DOCTYPE svg PUBLIC "-//W3C//DTD SVG 1.1//EN" "http://www.w3.org/Graphics/SVG/1.1/DTD/svg11.dtd"><svg width="100%" height="100%" viewBox="0 0 534 534" version="1.1" xmlns="http://www.w3.org/2000/svg" xmlns:xlink="http://www.w3.org/1999/xlink" xml:space="preserve" xmlns:serif="http://www.serif.com/" style="fill-rule:evenodd;clip-rule:evenodd;stroke-linecap:round;stroke-linejoin:round;"><path id="path28498" d="M266.667,39.833c-260.042,0 -266.167,291.5 -266.167,349.167c-0,57.75 119.125,104.5 266.167,104.5c147,0 266.166,-46.75 266.166,-104.5c0,-57.667 -6.166,-349.167 -266.166,-349.167Z" style="fill:#fcc21b;fill-rule:nonzero;"/><g id="g46926"><path id="path28500" d="M166.905,267.915c-18.708,0.167 -34.042,-17.792 -34.25,-40.083c-0.208,-22.375 14.792,-40.625 33.5,-40.792c18.667,-0.167 34.042,17.792 34.25,40.167c0.208,22.291 -14.792,40.5 -33.5,40.708Z" style="fill:#2f2f2f;fill-rule:nonzero;"/><path id="path28502" d="M350.697,267.915c18.666,-0.042 33.791,-18.167 33.75,-40.458c-0.042,-22.375 -15.25,-40.417 -33.917,-40.375c-18.708,0.041 -33.875,18.166 -33.833,40.541c0.083,22.292 15.291,40.334 34,40.292Z" style="fill:#2f2f2f;fill-rule:nonzero;"/></g><path d="M334.444,136.187c37.073,-18.12 59.655,-20.547 66.112,15.125" style="fill:none;stroke:#7b4600;stroke-width:15.75px;"/><path d="M131.302,172.374c21.083,-18.447 37.287,23.595 65.289,9.318" style="fill:none;stroke:#fcc21b;stroke-width:29.17px;"/><path d="M131.302,172.374c21.083,-18.447 37.287,23.595 65.289,9.318" style="fill:none;stroke:#7b4600;stroke-width:15.75px;"/><path id="path45011" d="M350.798,300.646c33.784,-0.075 61.157,-32.879 61.082,-73.223c-0.075,-40.495 -27.6,-73.148 -61.384,-73.073c-33.859,0.076 -61.308,32.879 -61.233,73.374c0.151,40.345 27.676,72.997 61.535,72.922Z" style="fill:#b2ebf2;fill-opacity:0.5;fill-rule:nonzero;"/><path id="path290" d="M350.268,158.662c-40.557,0.004 -63.343,35.678 -63.346,71.204c-0.002,35.53 22.785,71.21 63.346,71.213c40.564,0.002 63.357,-35.679 63.355,-71.213c-0.003,-35.529 -22.794,-71.206 -63.355,-71.204Z" style="fill:none;fill-rule:nonzero;stroke:#4d4d4d;stroke-width:12.5px;stroke-linejoin:miter;"/><path id="path4422" d="M428.66,218.252c-6.471,0.003 -11.795,5.327 -11.799,11.799c-0,0.003 -0,0.006 -0,0.01c-0,6.474 5.325,11.802 11.799,11.806c0.003,-0 0.007,-0 0.01,-0c6.476,-0 11.806,-5.33 11.806,-11.806c-0,-0.004 -0,-0.007 -0,-0.01c-0.004,-6.474 -5.332,-11.799 -11.806,-11.799c-0.003,-0 -0.007,-0 -0.01,-0Z" style="fill:#4d4d4d;fill-rule:nonzero;stroke:#4d4d4d;stroke-width:12.5px;stroke-linejoin:miter;"/><path id="path5151" d="M429.964,241.097c-0,0 -6.517,22.123 -6.517,42.264c0,20.141 33.337,46.533 33.337,66.326c0,19.794 -15.287,37.043 -15.287,57.052c0,20.009 26.635,38.671 26.635,38.671" style="fill:none;fill-rule:nonzero;stroke:#4d4d4d;stroke-width:12.5px;stroke-linejoin:miter;"/><path d="M201.72,358.663c43.298,-12.86 86.596,-12.86 129.893,0" style="fill:none;stroke:#2f2f2f;stroke-width:25px;stroke-miterlimit:1.5;"/></svg>