<?xml version="1.0" encoding="UTF-8" standalone="no"?>
<!DOCTYPE svg PUBLIC "-//W3C//DTD SVG 1.1//EN" "http://www.w3.org/Graphics/SVG/1.1/DTD/svg11.dtd">
<svg width="100%" height="100%" viewBox="0 0 128 128" version="1.1" xmlns="http://www.w3.org/2000/svg" xmlns:xlink="http://www.w3.org/1999/xlink" xml:space="preserve" xmlns:serif="http://www.serif.com/" style="fill-rule:evenodd;clip-rule:evenodd;stroke-linejoin:round;stroke-miterlimit:2;">
    <g>
        <g id="Ebene1" transform="matrix(0.969105,0.24665,-0.14023,0.550972,3.55176,43.2909)">
            <clipPath id="_clip1">
                <path d="M71.827,5.777L70.819,5.793C67.304,5.823 63.861,7.129 60.585,9.448C57.069,11.966 54.607,15.773 51.455,19.162C50.25,20.464 48.582,20.412 47.451,19.085C44.454,15.562 42.174,11.646 38.78,9.01C35.621,6.576 32.244,5.129 28.729,4.942C28.397,4.928 28.064,4.913 27.722,4.903C18.748,4.637 11.845,13.553 7.352,29.431C5.414,36.215 4.961,46.564 5.342,53.835C5.717,61.127 7.142,67.767 9.201,74.014C11.571,81.193 14.756,87.154 18.261,92.554L18.305,92.644C20.192,96.482 22.378,99.75 24.112,103.82C26.414,109.25 28.388,116.044 27.524,122.983C27.251,125.229 26.458,127.453 26.784,129.848C27.567,135.687 32.537,133.734 34.8,132.975C44.969,129.584 54.242,120.787 63.038,111.549C65.388,109.1 67.688,106.528 69.937,103.815C74.522,98.278 78.88,92.098 82.68,84.915C82.815,84.637 82.936,84.329 83.071,84.051C84.501,81.378 85.832,78.531 86.992,75.489C89.351,69.333 91.082,62.75 91.816,55.489C92.541,48.231 92.572,37.89 90.971,31.038C87.253,15.043 80.799,5.88 71.827,5.777Z"/>
            </clipPath>
            <g clip-path="url(#_clip1)">
                <rect x="2.415" y="3.502" width="125.585" height="22.219" style="fill:rgb(227,95,92);"/>
                <g transform="matrix(1,0,0,1,0,22.2189)">
                    <rect x="2.415" y="3.502" width="125.585" height="22.219" style="fill:rgb(255,167,38);"/>
                </g>
                <g transform="matrix(1,0,0,1,0,44.4377)">
                    <rect x="2.415" y="3.502" width="125.585" height="22.219" style="fill:rgb(255,238,88);"/>
                </g>
                <g transform="matrix(1,0,0,1,0,66.6566)">
                    <rect x="2.415" y="3.502" width="125.585" height="22.219" style="fill:rgb(142,197,79);"/>
                </g>
                <g transform="matrix(1,0,0,1,0,88.8755)">
                    <rect x="2.415" y="3.502" width="125.585" height="22.219" style="fill:rgb(82,156,210);"/>
                </g>
                <g transform="matrix(1,0,0,1,0,111.094)">
                    <rect x="2.415" y="3.502" width="125.585" height="22.219" style="fill:rgb(181,111,193);"/>
                </g>
            </g>
        </g>
        <g id="Ebene11" serif:id="Ebene1" transform="matrix(0.969105,0.24665,-0.101462,0.398653,34.0016,-13.5908)">
            <clipPath id="_clip2">
                <path d="M89.786,21.033C89.549,20.93 89.32,20.82 89.085,20.74C86.641,19.769 84.151,20.03 81.71,21.264C79.096,22.606 77.114,25.462 74.674,27.775C73.753,28.645 72.603,28.103 71.923,26.542C70.112,22.345 68.836,18.042 66.691,14.603C64.716,11.41 62.502,9.092 60.121,7.932C59.89,7.799 59.664,7.713 59.436,7.603C53.339,4.853 47.987,11.2 43.757,24.704C41.948,30.489 40.861,40.016 40.572,46.917C40.286,53.842 40.746,60.506 41.679,66.952C42.472,72.457 43.633,77.533 44.988,82.289C45.034,82.436 45.061,82.595 45.107,82.742C45.668,84.652 46.254,86.497 46.832,88.372C47.432,90.359 48.042,92.339 48.654,94.344C49.125,95.883 49.588,97.353 50.059,98.893C51.381,103.342 52.789,108.115 53.288,113.576C53.551,116.474 53.524,119.375 53.26,122.272C53.077,124.367 52.126,128.392 52.867,130.342C53.802,132.773 55.656,133.232 57.089,133.223L57.613,133.2C65.032,132.799 72.093,126.524 78.406,119.106C80.373,116.81 82.292,114.344 84.153,111.813C87.081,107.844 90.052,103.598 92.434,98.161C92.7,97.545 93.04,96.958 93.304,96.318C94.005,94.931 94.688,93.48 95.348,91.893C97.449,86.73 99.156,80.958 100.187,74.249C101.228,67.535 101.992,57.681 101.361,50.671C99.904,34.289 96.051,23.704 89.786,21.033Z"/>
            </clipPath>
            <g clip-path="url(#_clip2)">
                <rect x="2.415" y="3.502" width="125.585" height="22.219" style="fill:rgb(227,95,92);"/>
                <g transform="matrix(1,0,0,1,0,22.2189)">
                    <rect x="2.415" y="3.502" width="125.585" height="22.219" style="fill:rgb(255,167,38);"/>
                </g>
                <g transform="matrix(1,0,0,1,0,44.4377)">
                    <rect x="2.415" y="3.502" width="125.585" height="22.219" style="fill:rgb(255,238,88);"/>
                </g>
                <g transform="matrix(1,0,0,1,0,66.6566)">
                    <rect x="2.415" y="3.502" width="125.585" height="22.219" style="fill:rgb(142,197,79);"/>
                </g>
                <g transform="matrix(1,0,0,1,0,88.8755)">
                    <rect x="2.415" y="3.502" width="125.585" height="22.219" style="fill:rgb(82,156,210);"/>
                </g>
                <g transform="matrix(1,0,0,1,0,111.094)">
                    <rect x="2.415" y="3.502" width="125.585" height="22.219" style="fill:rgb(181,111,193);"/>
                </g>
            </g>
        </g>
    </g>
</svg>
