<?xml version="1.0" encoding="UTF-8" standalone="no"?>
<!DOCTYPE svg PUBLIC "-//W3C//DTD SVG 1.1//EN" "http://www.w3.org/Graphics/SVG/1.1/DTD/svg11.dtd">
<svg width="100%" height="100%" viewBox="0 0 128 128" version="1.1" xmlns="http://www.w3.org/2000/svg" xmlns:xlink="http://www.w3.org/1999/xlink" xml:space="preserve" xmlns:serif="http://www.serif.com/" style="fill-rule:evenodd;clip-rule:evenodd;stroke-linejoin:round;stroke-miterlimit:2;">
    <path d="M63.79,8.64C1.48,8.64 0,78.5 0,92.33C0,106.16 28.56,117.36 63.79,117.36C99.03,117.36 127.58,106.15 127.58,92.33C127.58,78.5 126.11,8.64 63.79,8.64Z" style="fill:rgb(252,194,27);fill-rule:nonzero;"/>
    <path d="M109.54,94.9C100.04,98.31 89.56,93.5 86.1,84.12C82.66,74.75 87.53,64.38 97.03,60.95C106.5,57.54 117.01,62.37 120.48,71.74C123.92,81.13 119.02,91.5 109.54,94.9Z" style="fill:rgb(252,194,27);fill-rule:nonzero;"/>
    <path d="M109.31,94.27C100.16,97.56 90.07,92.92 86.75,83.9C83.44,74.88 88.13,64.9 97.27,61.6C106.39,58.32 116.5,62.97 119.84,71.99C123.15,81.01 118.43,90.99 109.31,94.27Z" style="fill:rgb(252,192,28);fill-rule:nonzero;"/>
    <path d="M109.07,93.63C100.28,96.79 90.58,92.34 87.38,83.66C84.2,75 88.72,65.4 97.5,62.23C106.27,59.08 115.98,63.54 119.19,72.21C122.37,80.89 117.84,90.49 109.07,93.63Z" style="fill:rgb(252,190,28);fill-rule:nonzero;"/>
    <path d="M108.84,93C100.4,96.03 91.1,91.76 88.03,83.43C84.97,75.11 89.3,65.9 97.73,62.86C106.14,59.83 115.47,64.12 118.55,72.44C121.6,80.77 117.26,89.98 108.84,93Z" style="fill:rgb(251,187,29);fill-rule:nonzero;"/>
    <path d="M108.61,92.36C100.53,95.26 91.61,91.17 88.68,83.19C85.75,75.22 89.9,66.4 97.98,63.49C106.04,60.59 114.97,64.7 117.92,72.67C120.83,80.65 116.67,89.47 108.61,92.36Z" style="fill:rgb(251,185,30);fill-rule:nonzero;"/>
    <path d="M108.37,91.73C100.64,94.51 92.12,90.59 89.31,82.97C86.51,75.35 90.48,66.92 98.2,64.13C105.9,61.36 114.44,65.28 117.26,72.9C120.06,80.53 116.08,88.96 108.37,91.73Z" style="fill:rgb(251,183,30);fill-rule:nonzero;"/>
    <path d="M108.14,91.1C100.77,93.75 92.64,90.01 89.96,82.74C87.29,75.47 91.07,67.43 98.44,64.77C105.79,62.13 113.94,65.87 116.63,73.14C119.29,80.41 115.49,88.46 108.14,91.1Z" style="fill:rgb(251,181,31);fill-rule:nonzero;"/>
    <path d="M107.9,90.46C100.88,92.98 93.14,89.43 90.6,82.5C88.06,75.58 91.66,67.93 98.67,65.4C105.67,62.88 113.42,66.45 115.98,73.37C118.52,80.29 114.9,87.95 107.9,90.46Z" style="fill:rgb(250,178,32);fill-rule:nonzero;"/>
    <path d="M107.67,89.83C101.01,92.22 93.66,88.85 91.24,82.28C88.83,75.71 92.25,68.44 98.9,66.04C105.54,63.65 112.9,67.04 115.33,73.6C117.75,80.17 114.31,87.44 107.67,89.83Z" style="fill:rgb(250,176,32);fill-rule:nonzero;"/>
    <path d="M107.44,89.19C101.13,91.45 94.18,88.26 91.89,82.04C89.61,75.82 92.84,68.94 99.14,66.67C105.43,64.41 112.4,67.61 114.7,73.83C116.98,80.05 113.73,86.93 107.44,89.19Z" style="fill:rgb(250,174,33);fill-rule:nonzero;"/>
    <path d="M107.2,88.56C101.25,90.7 94.69,87.68 92.52,81.81C90.37,75.94 93.42,69.45 99.36,67.31C105.29,65.18 111.87,68.2 114.04,74.07C116.2,79.93 113.14,86.43 107.2,88.56Z" style="fill:rgb(250,172,34);fill-rule:nonzero;"/>
    <path d="M106.97,87.92C101.38,89.93 95.2,87.1 93.17,81.57C91.14,76.06 94.02,69.95 99.61,67.93C105.19,65.92 111.37,68.77 113.41,74.28C115.43,79.81 112.55,85.92 106.97,87.92Z" style="fill:rgb(249,169,34);fill-rule:nonzero;"/>
    <path d="M106.74,87.29C101.5,89.17 95.72,86.52 93.82,81.35C91.92,76.19 94.61,70.47 99.85,68.58C105.08,66.7 110.87,69.36 112.78,74.53C114.66,79.69 111.96,85.41 106.74,87.29Z" style="fill:rgb(249,167,35);fill-rule:nonzero;"/>
    <path d="M106.5,86.65C101.62,88.4 96.23,85.93 94.45,81.11C92.68,76.3 95.19,70.97 100.07,69.2C104.94,67.45 110.34,69.93 112.12,74.75C113.89,79.57 111.37,84.91 106.5,86.65Z" style="fill:rgb(249,165,36);fill-rule:nonzero;"/>
    <path d="M106.27,86.02C101.74,87.65 96.74,85.35 95.1,80.88C93.46,76.42 95.78,71.47 100.31,69.84C104.83,68.22 109.83,70.52 111.48,74.98C113.12,79.45 110.79,84.4 106.27,86.02Z" style="fill:rgb(249,163,36);fill-rule:nonzero;"/>
    <path d="M106.03,85.39C101.86,86.89 97.25,84.77 95.74,80.65C94.23,76.54 96.37,71.98 100.54,70.48C104.7,68.98 109.31,71.11 110.84,75.22C112.35,79.33 110.2,83.89 106.03,85.39Z" style="fill:rgb(248,160,37);fill-rule:nonzero;"/>
    <path d="M105.8,84.75C101.98,86.12 97.77,84.19 96.38,80.42C95,76.66 96.96,72.49 100.77,71.11C104.58,69.74 108.8,71.68 110.19,75.45C111.58,79.21 109.61,83.38 105.8,84.75Z" style="fill:rgb(248,158,38);fill-rule:nonzero;"/>
    <path d="M105.57,84.12C102.11,85.36 98.29,83.61 97.03,80.19C95.78,76.78 97.55,73 101.01,71.75C104.47,70.51 108.29,72.27 109.56,75.68C110.81,79.09 109.02,82.88 105.57,84.12Z" style="fill:rgb(248,156,38);fill-rule:nonzero;"/>
    <path d="M105.33,83.48C102.22,84.6 98.79,83.02 97.66,79.95C96.53,76.89 98.13,73.5 101.23,72.37C104.33,71.26 107.76,72.84 108.9,75.9C110.04,78.97 108.43,82.37 105.33,83.48Z" style="fill:rgb(248,154,39);fill-rule:nonzero;"/>
    <path d="M105.1,82.85C102.35,83.84 99.31,82.44 98.31,79.73C97.31,77.02 98.73,74.01 101.48,73.02C104.23,72.03 107.27,73.43 108.27,76.15C109.26,78.85 107.84,81.86 105.1,82.85Z" style="fill:rgb(247,151,40);fill-rule:nonzero;"/>
    <path d="M104.87,82.21C102.47,83.07 99.83,81.86 98.96,79.49C98.09,77.13 99.32,74.51 101.72,73.65C104.11,72.79 106.76,74.01 107.64,76.37C108.49,78.73 107.26,81.36 104.87,82.21Z" style="fill:rgb(247,149,40);fill-rule:nonzero;"/>
    <path d="M104.63,81.58C102.59,82.31 100.33,81.28 99.59,79.26C98.85,77.25 99.9,75.02 101.94,74.28C103.98,73.55 106.23,74.59 106.98,76.6C107.72,78.61 106.67,80.85 104.63,81.58Z" style="fill:rgb(247,147,41);fill-rule:nonzero;"/>
    <g>
        <path d="M31.54,94.9C22.04,98.31 11.56,93.5 8.1,84.12C4.66,74.75 9.53,64.38 19.03,60.95C28.5,57.54 39.01,62.37 42.48,71.74C45.92,81.13 41.02,91.5 31.54,94.9Z" style="fill:rgb(252,194,27);fill-rule:nonzero;"/>
        <path d="M31.31,94.27C22.16,97.56 12.07,92.92 8.75,83.9C5.44,74.88 10.13,64.9 19.27,61.6C28.39,58.32 38.5,62.97 41.84,71.99C45.15,81.01 40.43,90.99 31.31,94.27Z" style="fill:rgb(252,192,28);fill-rule:nonzero;"/>
        <path d="M31.07,93.63C22.28,96.79 12.58,92.34 9.38,83.66C6.2,75 10.72,65.4 19.5,62.23C28.27,59.08 37.98,63.54 41.19,72.21C44.37,80.89 39.84,90.49 31.07,93.63Z" style="fill:rgb(252,190,28);fill-rule:nonzero;"/>
        <path d="M30.84,93C22.4,96.03 13.1,91.76 10.03,83.43C6.97,75.11 11.3,65.9 19.73,62.86C28.14,59.83 37.47,64.12 40.55,72.44C43.6,80.77 39.26,89.98 30.84,93Z" style="fill:rgb(251,187,29);fill-rule:nonzero;"/>
        <path d="M30.61,92.36C22.53,95.26 13.61,91.17 10.68,83.19C7.75,75.22 11.9,66.4 19.98,63.49C28.04,60.59 36.97,64.7 39.92,72.67C42.83,80.65 38.67,89.47 30.61,92.36Z" style="fill:rgb(251,185,30);fill-rule:nonzero;"/>
        <path d="M30.37,91.73C22.64,94.51 14.12,90.59 11.31,82.97C8.51,75.35 12.48,66.92 20.2,64.13C27.9,61.36 36.44,65.28 39.26,72.9C42.06,80.53 38.08,88.96 30.37,91.73Z" style="fill:rgb(251,183,30);fill-rule:nonzero;"/>
        <path d="M30.14,91.1C22.77,93.75 14.64,90.01 11.96,82.74C9.29,75.47 13.07,67.43 20.44,64.77C27.79,62.13 35.94,65.87 38.63,73.14C41.29,80.41 37.49,88.46 30.14,91.1Z" style="fill:rgb(251,181,31);fill-rule:nonzero;"/>
        <path d="M29.9,90.46C22.88,92.98 15.14,89.43 12.6,82.5C10.06,75.58 13.66,67.93 20.67,65.4C27.67,62.88 35.42,66.45 37.98,73.37C40.52,80.29 36.9,87.95 29.9,90.46Z" style="fill:rgb(250,178,32);fill-rule:nonzero;"/>
        <path d="M29.67,89.83C23.01,92.22 15.66,88.85 13.24,82.28C10.83,75.71 14.25,68.44 20.9,66.04C27.54,63.65 34.9,67.04 37.33,73.6C39.75,80.17 36.31,87.44 29.67,89.83Z" style="fill:rgb(250,176,32);fill-rule:nonzero;"/>
        <path d="M29.44,89.19C23.13,91.45 16.18,88.26 13.89,82.04C11.61,75.82 14.84,68.94 21.14,66.67C27.43,64.41 34.4,67.61 36.7,73.83C38.98,80.05 35.73,86.93 29.44,89.19Z" style="fill:rgb(250,174,33);fill-rule:nonzero;"/>
        <path d="M29.2,88.56C23.25,90.7 16.69,87.68 14.52,81.81C12.37,75.94 15.42,69.45 21.36,67.31C27.29,65.18 33.87,68.2 36.04,74.07C38.2,79.93 35.14,86.43 29.2,88.56Z" style="fill:rgb(250,172,34);fill-rule:nonzero;"/>
        <path d="M28.97,87.92C23.38,89.93 17.2,87.1 15.17,81.57C13.14,76.06 16.02,69.95 21.61,67.93C27.19,65.92 33.37,68.77 35.41,74.28C37.43,79.81 34.55,85.92 28.97,87.92Z" style="fill:rgb(249,169,34);fill-rule:nonzero;"/>
        <path d="M28.74,87.29C23.5,89.17 17.72,86.52 15.82,81.35C13.92,76.19 16.61,70.47 21.85,68.58C27.08,66.7 32.87,69.36 34.78,74.53C36.66,79.69 33.96,85.41 28.74,87.29Z" style="fill:rgb(249,167,35);fill-rule:nonzero;"/>
        <path d="M28.5,86.65C23.62,88.4 18.23,85.93 16.45,81.11C14.68,76.3 17.19,70.97 22.07,69.2C26.94,67.45 32.34,69.93 34.12,74.75C35.89,79.57 33.37,84.91 28.5,86.65Z" style="fill:rgb(249,165,36);fill-rule:nonzero;"/>
        <path d="M28.27,86.02C23.74,87.65 18.74,85.35 17.1,80.88C15.46,76.42 17.78,71.47 22.31,69.84C26.83,68.22 31.83,70.52 33.48,74.98C35.12,79.45 32.79,84.4 28.27,86.02Z" style="fill:rgb(249,163,36);fill-rule:nonzero;"/>
        <path d="M28.03,85.39C23.86,86.89 19.25,84.77 17.74,80.65C16.23,76.54 18.37,71.98 22.54,70.48C26.7,68.98 31.31,71.11 32.84,75.22C34.35,79.33 32.2,83.89 28.03,85.39Z" style="fill:rgb(248,160,37);fill-rule:nonzero;"/>
        <path d="M27.8,84.75C23.98,86.12 19.77,84.19 18.38,80.42C17,76.66 18.96,72.49 22.77,71.11C26.58,69.74 30.8,71.68 32.19,75.45C33.58,79.21 31.61,83.38 27.8,84.75Z" style="fill:rgb(248,158,38);fill-rule:nonzero;"/>
        <path d="M27.57,84.12C24.11,85.36 20.29,83.61 19.03,80.19C17.78,76.78 19.55,73 23.01,71.75C26.47,70.51 30.29,72.27 31.56,75.68C32.81,79.09 31.02,82.88 27.57,84.12Z" style="fill:rgb(248,156,38);fill-rule:nonzero;"/>
        <path d="M27.33,83.48C24.22,84.6 20.79,83.02 19.66,79.95C18.53,76.89 20.13,73.5 23.23,72.37C26.33,71.26 29.76,72.84 30.9,75.9C32.04,78.97 30.43,82.37 27.33,83.48Z" style="fill:rgb(248,154,39);fill-rule:nonzero;"/>
        <path d="M27.1,82.85C24.35,83.84 21.31,82.44 20.31,79.73C19.31,77.02 20.73,74.01 23.48,73.02C26.23,72.03 29.27,73.43 30.27,76.15C31.26,78.85 29.84,81.86 27.1,82.85Z" style="fill:rgb(247,151,40);fill-rule:nonzero;"/>
        <path d="M26.87,82.21C24.47,83.07 21.83,81.86 20.96,79.49C20.09,77.13 21.32,74.51 23.72,73.65C26.11,72.79 28.76,74.01 29.64,76.37C30.49,78.73 29.26,81.36 26.87,82.21Z" style="fill:rgb(247,149,40);fill-rule:nonzero;"/>
        <path d="M26.63,81.58C24.59,82.31 22.33,81.28 21.59,79.26C20.85,77.25 21.9,75.02 23.94,74.28C25.98,73.55 28.23,74.59 28.98,76.6C29.72,78.61 28.67,80.85 26.63,81.58Z" style="fill:rgb(247,147,41);fill-rule:nonzero;"/>
    </g>
    <g transform="matrix(0.997767,0.0667954,-0.0447362,0.668255,2.60069,5.36694)">
        <g id="Ebene1">
            <g>
                <clipPath id="_clip1">
                    <path d="M44.763,31.34C40.908,33.087 38.28,37.279 37.581,42.107C34.715,38.97 30.571,37.827 26.867,39.545C24.099,40.818 21.879,43.364 20.592,46.785C19.316,50.192 19.139,54.019 20.106,57.563C24.414,73.663 45.807,78.563 46.707,78.774C46.933,78.83 47.154,78.795 47.361,78.731C47.625,78.633 47.861,78.446 48.046,78.171C48.655,77.253 62.984,55.981 58.668,39.927C56.71,32.626 50.337,28.655 44.763,31.34ZM78.82,23.059C83.766,24.255 87.556,28.729 89.089,34.427C92.127,29.921 97.003,27.536 101.762,28.729C105.281,29.577 108.398,32.206 110.424,36.032C112.466,39.873 113.223,44.48 112.564,49.024C109.637,69.65 84.304,80.746 83.233,81.212C82.975,81.324 82.699,81.355 82.43,81.301C82.094,81.234 81.778,81.056 81.511,80.783C80.641,79.848 60.176,57.422 63.12,36.852C64.452,27.484 71.645,21.122 78.819,23.059L78.82,23.059Z"/>
                </clipPath>
                <g clip-path="url(#_clip1)">
                    <g transform="matrix(1,-1.38778e-17,2.19868e-09,0.114308,-4.66642e-07,27.9826)">
                        <rect x="0" y="29.955" width="128" height="60.194" style="fill:rgb(219,68,55);"/>
                    </g>
                    <g transform="matrix(1,-1.38778e-17,2.19868e-09,0.114308,-3.33924e-07,34.8825)">
                        <rect x="0" y="29.955" width="128" height="60.194" style="fill:rgb(255,147,101);"/>
                    </g>
                    <g transform="matrix(1,-1.38778e-17,2.19868e-09,0.114308,-2.01205e-07,41.7825)">
                        <rect x="0" y="29.955" width="128" height="60.194" style="fill:rgb(255,240,112);"/>
                    </g>
                    <g transform="matrix(1,-1.38778e-17,2.19868e-09,0.114308,-6.84871e-08,48.6824)">
                        <rect x="0" y="29.955" width="128" height="60.194" style="fill:rgb(164,208,113);"/>
                    </g>
                    <g transform="matrix(1,-1.38778e-17,2.19868e-09,0.114308,6.42306e-08,55.5823)">
                        <rect x="0" y="29.955" width="128" height="60.194" style="fill:rgb(82,156,210);"/>
                    </g>
                    <g transform="matrix(1,-1.38778e-17,2.19868e-09,0.114308,1.9695e-07,62.4822)">
                        <rect x="0" y="29.955" width="128" height="60.194" style="fill:rgb(165,79,180);"/>
                    </g>
                </g>
            </g>
        </g>
    </g>
    <g transform="matrix(0.997767,0.0667954,-0.0514943,0.769205,2.90321,0.84801)">
        <path d="M78.82,23.059C83.766,24.255 87.556,28.729 89.089,34.427C92.127,29.921 97.003,27.536 101.762,28.729C105.281,29.577 108.398,32.206 110.424,36.032C112.466,39.873 113.223,44.48 112.564,49.024C109.637,69.65 84.304,80.746 83.233,81.212C82.975,81.324 82.699,81.355 82.43,81.301C82.094,81.234 81.778,81.056 81.511,80.783C80.641,79.848 60.176,57.422 63.12,36.852C64.452,27.484 71.645,21.122 78.819,23.059L78.82,23.059ZM44.763,31.34C40.908,33.087 38.28,37.279 37.581,42.107C34.715,38.97 30.571,37.827 26.867,39.545C24.099,40.818 21.879,43.364 20.592,46.785C19.316,50.192 19.139,54.019 20.106,57.563C24.414,73.663 45.807,78.563 46.707,78.774C46.933,78.83 47.154,78.795 47.361,78.731C47.625,78.633 47.861,78.446 48.046,78.171C48.655,77.253 62.984,55.981 58.668,39.927C56.71,32.626 50.337,28.655 44.763,31.34ZM77.209,34.538L77.171,34.536C78.809,34.932 80.084,36.386 80.592,38.274C81.647,42.197 84.231,45.097 87.377,45.888C90.522,46.679 93.755,45.241 95.864,42.112C96.87,40.619 98.477,39.796 100.054,40.191C100.076,40.197 100.097,40.202 100.118,40.207C101.291,40.49 102.33,41.366 103.005,42.642C103.009,42.648 103.012,42.654 103.015,42.66C103.676,43.904 103.933,45.394 103.719,46.866C103.717,46.881 103.715,46.896 103.713,46.911C102.944,52.325 99.45,56.373 95.936,59.74C91.846,63.66 87.349,66.495 84.238,68.207C81.859,65.176 78.429,60.354 75.685,54.707C73.335,49.872 71.192,44.413 71.969,38.983C71.969,38.978 71.97,38.974 71.971,38.969C72.398,35.961 74.681,33.866 76.985,34.488L77.209,34.538ZM43.987,65.98C41.514,65.085 38.311,63.677 35.269,61.597C32.503,59.705 29.604,57.457 28.608,53.735C28.602,53.713 28.596,53.69 28.59,53.668C28.432,53.088 28.475,52.463 28.681,51.904C28.927,51.254 29.354,50.788 29.874,50.548C29.882,50.545 29.89,50.541 29.897,50.538C30.549,50.235 31.272,50.477 31.777,51.029C34.224,53.708 37.584,54.498 40.6,53.105C43.617,51.711 45.835,48.344 46.426,44.262C46.551,43.399 47.042,42.673 47.731,42.361C47.786,42.336 47.841,42.31 47.896,42.284C48.816,41.841 49.845,42.558 50.168,43.763C50.168,43.765 50.169,43.768 50.17,43.771C51.174,47.505 49.979,51.643 48.718,55.396C47.333,59.52 45.498,63.25 43.987,65.98Z" style="fill:rgb(209,71,122);"/>
    </g>
    <path d="M46.984,73.004C46.484,72.984 46.001,73.026 45.529,73.141C40.319,74.401 38.15,79.721 42.99,87.801C45.42,91.841 53.37,98.301 64.01,98.301C75.33,98.301 82.47,92.111 85.03,87.801C89.83,79.701 87.7,74.401 82.49,73.141C78.72,72.221 74.15,76.061 67.05,77.651C65.94,77.901 64.94,77.991 64.01,77.981C63.08,77.991 62.08,77.901 60.97,77.651C54.758,76.259 50.482,73.144 46.984,73.004Z" style="fill:rgb(237,108,48);fill-rule:nonzero;"/>
</svg>
