<?xml version="1.0" encoding="UTF-8" standalone="no"?>
<!DOCTYPE svg PUBLIC "-//W3C//DTD SVG 1.1//EN" "http://www.w3.org/Graphics/SVG/1.1/DTD/svg11.dtd">
<svg width="100%" height="100%" viewBox="0 0 128 128" version="1.1" xmlns="http://www.w3.org/2000/svg" xmlns:xlink="http://www.w3.org/1999/xlink" xml:space="preserve" xmlns:serif="http://www.serif.com/" style="fill-rule:evenodd;clip-rule:evenodd;stroke-linecap:round;stroke-linejoin:round;">
    <g transform="matrix(1,0,0,0.994525,0,0.381059)">
        <path d="M84.889,29.955C84.889,29.955 55.856,25.13 5.929,73C3.481,75.004 3.631,79.913 5.929,80.862C5.929,80.862 25.314,91.342 84.889,90.037L128,90.037L128,29.955L84.889,29.955Z" style="fill:white;"/>
    </g>
    <g id="Ebene1">
        <clipPath id="_clip1">
            <path d="M84.889,30.172C84.889,30.172 55.856,25.373 5.929,72.981C3.481,74.974 3.631,79.857 5.929,80.8C5.929,80.8 25.314,91.223 84.889,89.925L128,89.925L128,30.172L84.889,30.172Z" clip-rule="nonzero"/>
        </clipPath>
        <g clip-path="url(#_clip1)">
            <g transform="matrix(1,0,0,0.166128,0,25.1957)">
                <rect x="0" y="29.955" width="128" height="60.194" style="fill:rgb(227,95,92);"/>
            </g>
            <g transform="matrix(1,0,0,0.166128,0,35.2236)">
                <rect x="0" y="29.955" width="128" height="60.194" style="fill:rgb(242,141,94);"/>
            </g>
            <g transform="matrix(1,0,0,0.166128,0,45.2516)">
                <rect x="0" y="29.955" width="128" height="60.194" style="fill:rgb(255,213,79);"/>
            </g>
            <g transform="matrix(1,0,0,0.166128,0,55.2795)">
                <rect x="0" y="29.955" width="128" height="60.194" style="fill:rgb(142,197,79);"/>
            </g>
            <g transform="matrix(1,0,0,0.166128,0,65.3074)">
                <rect x="0" y="29.955" width="128" height="60.194" style="fill:rgb(98,192,234);"/>
            </g>
            <g transform="matrix(1,0,0,0.166128,0,75.3354)">
                <rect x="0" y="29.955" width="128" height="60.194" style="fill:rgb(165,79,180);"/>
            </g>
        </g>
    </g>
    <path d="M0,90.037L128,90.037L128,93.791L0,93.791L0,90.037ZM0,96.406L128,96.406L128,100.16L0,100.16L0,96.406Z" style="fill:rgb(47,47,47);fill-rule:nonzero;"/>
    <g>
        <path d="M3.268,97.803L4.684,92.518M11.497,97.803L12.913,92.518M19.726,97.803L21.142,92.518M27.955,97.803L29.371,92.518M36.184,97.803L37.601,92.518M44.414,97.803L45.83,92.518M52.643,97.803L54.059,92.518M60.872,97.803L62.288,92.518M69.101,97.803L70.517,92.518" style="fill:none;stroke:rgb(47,47,47);stroke-width:3.78px;"/>
    </g>
    <path d="M97.26,90.037C97.34,90.501 97.379,90.972 97.379,91.443C97.376,93.233 96.794,94.974 95.721,96.406L128,96.406L128,90.037L97.26,90.037ZM5.929,80.8C5.929,80.8 19.1,92.292 57.04,95.592C56.307,94.332 55.92,92.901 55.917,91.443C55.919,90.852 55.96,90.173 56.087,89.596C18.917,87.742 5.929,80.8 5.929,80.8Z" style="fill:rgb(85,85,85);fill-rule:nonzero;"/>
    <g>
        <circle cx="64.205" cy="91.443" r="6.218" style="fill:rgb(47,47,47);"/>
        <circle cx="76.642" cy="91.443" r="6.218" style="fill:rgb(47,47,47);"/>
        <circle cx="89.079" cy="91.443" r="6.218" style="fill:rgb(47,47,47);"/>
    </g>
    <path d="M128,41.734L67.3,41.734C67.3,41.734 49.155,43.588 38.877,58.387C38.877,58.387 38.964,58.814 39.09,59.432C39.625,62.05 42.114,63.793 44.757,63.399C49.754,62.882 58.971,62.232 73.639,62.21C97.909,62.172 128,62.209 128,62.209L128,41.734Z" style="fill:rgb(47,47,47);"/>
    <path d="M102.666,48.788C102.666,45.808 100.246,43.388 97.266,43.388L91.042,43.388C88.062,43.388 85.642,45.808 85.642,48.788L85.642,55.155C85.642,58.135 88.062,60.555 91.042,60.555L97.266,60.555C100.246,60.555 102.666,58.135 102.666,55.155L102.666,48.788Z" style="fill:rgb(30,157,219);fill-opacity:0.68;"/>
    <path d="M121.008,48.788C121.008,45.808 118.588,43.388 115.608,43.388L109.384,43.388C106.404,43.388 103.984,45.808 103.984,48.788L103.984,55.155C103.984,58.135 106.404,60.555 109.384,60.555L115.608,60.555C118.588,60.555 121.008,58.135 121.008,55.155L121.008,48.788Z" style="fill:rgb(30,157,219);fill-opacity:0.68;"/>
    <path d="M127.727,43.388C124.735,43.388 122.327,45.408 122.327,47.916L122.327,56.027C122.327,58.536 124.735,60.555 127.727,60.555L128,60.555L128,43.388L127.727,43.388Z" style="fill:rgb(30,157,219);fill-opacity:0.68;fill-rule:nonzero;"/>
    <path d="M84.324,48.788C84.324,45.808 81.904,43.388 78.924,43.388L72.7,43.388C69.72,43.388 67.3,45.808 67.3,48.788L67.3,55.155C67.3,58.135 69.72,60.555 72.7,60.555L78.924,60.555C81.904,60.555 84.324,58.135 84.324,55.155L84.324,48.788Z" style="fill:rgb(30,157,219);fill-opacity:0.68;"/>
</svg>
