<?xml version="1.0" encoding="UTF-8" standalone="no"?>
<!DOCTYPE svg PUBLIC "-//W3C//DTD SVG 1.1//EN" "http://www.w3.org/Graphics/SVG/1.1/DTD/svg11.dtd">
<svg width="100%" height="100%" viewBox="0 0 128 128" version="1.1" xmlns="http://www.w3.org/2000/svg" xmlns:xlink="http://www.w3.org/1999/xlink" xml:space="preserve" xmlns:serif="http://www.serif.com/" style="fill-rule:evenodd;clip-rule:evenodd;stroke-linejoin:round;stroke-miterlimit:2;">
    <g transform="matrix(0.866025,0.5,-0.5,0.866025,38.9893,-33.482)">
        <ellipse cx="62.847" cy="102.953" rx="30.712" ry="14.508" style="fill:rgb(213,115,11);"/>
        <g>
            <path d="M62.848,91.847C56.016,91.847 49.828,92.784 45.229,94.363C42.929,95.152 41.021,96.099 39.623,97.233C38.224,98.369 37.311,99.758 37.311,101.281C37.311,102.805 38.224,104.192 39.623,105.327C41.021,106.463 42.93,107.409 45.229,108.198C49.827,109.777 56.016,110.714 62.848,110.714C69.68,110.714 75.868,109.777 80.466,108.198C82.766,107.409 84.674,106.463 86.073,105.328C87.471,104.192 88.383,102.805 88.383,101.281C88.383,99.758 87.471,98.369 86.073,97.234C84.674,96.099 82.765,95.152 80.466,94.363C75.868,92.784 69.68,91.847 62.848,91.847Z" style="fill:rgb(181,111,193);fill-rule:nonzero;"/>
            <g>
                <path d="M62.848,89.069C56.016,89.069 49.828,90.006 45.229,91.584C42.929,92.374 41.021,93.32 39.623,94.456C38.224,95.591 37.311,96.98 37.311,98.503C37.311,100.026 38.224,101.413 39.623,102.549C41.021,103.684 42.93,104.631 45.229,105.42C49.827,106.999 56.016,107.936 62.848,107.936C69.68,107.936 75.868,106.999 80.466,105.42C82.766,104.63 84.674,103.684 86.073,102.549C87.471,101.414 88.383,100.026 88.383,98.503C88.383,96.98 87.471,95.591 86.073,94.456C84.674,93.32 82.765,92.374 80.466,91.584C75.868,90.006 69.68,89.069 62.848,89.069Z" style="fill:rgb(149,49,166);fill-rule:nonzero;"/>
                <path d="M62.848,86.29C56.016,86.29 49.828,87.228 45.229,88.806C42.929,89.596 41.021,90.542 39.623,91.677C38.224,92.812 37.311,94.201 37.311,95.725C37.311,97.248 38.224,98.635 39.623,99.771C41.021,100.906 42.93,101.852 45.229,102.641C49.827,104.221 56.016,105.158 62.848,105.158C69.68,105.158 75.868,104.22 80.466,102.642C82.766,101.852 84.674,100.906 86.073,99.771C87.471,98.635 88.383,97.248 88.383,95.725C88.383,94.201 87.471,92.812 86.073,91.677C84.674,90.542 82.765,89.595 80.466,88.807C75.868,87.227 69.68,86.29 62.848,86.29Z" style="fill:rgb(98,192,234);fill-rule:nonzero;"/>
                <path d="M62.848,83.512C56.016,83.512 49.828,84.449 45.229,86.028C42.929,86.818 41.021,87.764 39.623,88.898C38.224,90.034 37.311,91.423 37.311,92.946C37.311,94.47 38.224,95.857 39.623,96.992C41.021,98.128 42.93,99.074 45.229,99.863C49.827,101.442 56.016,102.379 62.848,102.379C69.68,102.379 75.868,101.442 80.466,99.863C82.766,99.074 84.674,98.128 86.073,96.993C87.471,95.857 88.383,94.47 88.383,92.946C88.383,91.423 87.471,90.034 86.073,88.899C84.674,87.764 82.765,86.817 80.466,86.028C75.868,84.449 69.68,83.512 62.848,83.512Z" style="fill:rgb(30,157,219);fill-rule:nonzero;"/>
                <path d="M62.848,80.734C56.016,80.734 49.828,81.671 45.229,83.249C42.929,84.039 41.021,84.985 39.623,86.121C38.224,87.256 37.311,88.645 37.311,90.168C37.311,91.691 38.224,93.078 39.623,94.214C41.021,95.349 42.93,96.296 45.229,97.085C49.827,98.664 56.016,99.601 62.848,99.601C69.68,99.601 75.868,98.664 80.466,97.085C82.766,96.295 84.674,95.349 86.073,94.214C87.471,93.079 88.383,91.691 88.383,90.168C88.383,88.645 87.471,87.256 86.073,86.121C84.674,84.985 82.765,84.039 80.466,83.249C75.868,81.671 69.68,80.734 62.848,80.734Z" style="fill:rgb(98,192,234);fill-rule:nonzero;"/>
                <g>
                    <path d="M62.848,77.955C56.016,77.955 49.828,78.893 45.229,80.471C42.929,81.261 41.021,82.207 39.623,83.342C38.224,84.477 37.311,85.866 37.311,87.39C37.311,88.913 38.224,90.3 39.623,91.436C41.021,92.571 42.93,93.517 45.229,94.306C49.827,95.886 56.016,96.823 62.848,96.823C69.68,96.823 75.868,95.885 80.466,94.307C82.766,93.517 84.674,92.571 86.073,91.436C87.471,90.3 88.383,88.913 88.383,87.39C88.383,85.866 87.471,84.477 86.073,83.342C84.674,82.207 82.765,81.26 80.466,80.472C75.868,78.892 69.68,77.955 62.848,77.955Z" style="fill:rgb(30,157,219);fill-rule:nonzero;"/>
                    <path d="M62.848,75.177C56.016,75.177 49.828,76.114 45.229,77.693C42.929,78.483 41.021,79.429 39.623,80.563C38.224,81.699 37.311,83.088 37.311,84.611C37.311,86.135 38.224,87.522 39.623,88.657C41.021,89.793 42.93,90.739 45.229,91.528C49.827,93.107 56.016,94.044 62.848,94.044C69.68,94.044 75.868,93.107 80.466,91.528C82.766,90.739 84.674,89.793 86.073,88.658C87.471,87.522 88.383,86.135 88.383,84.611C88.383,83.088 87.471,81.699 86.073,80.564C84.674,79.429 82.765,78.482 80.466,77.693C75.868,76.114 69.68,75.177 62.848,75.177Z" style="fill:rgb(164,208,113);fill-rule:nonzero;"/>
                    <path d="M62.848,72.399C56.016,72.399 49.828,73.336 45.229,74.915C42.929,75.704 41.021,76.65 39.623,77.785C38.224,78.921 37.311,80.31 37.311,81.833C37.311,83.356 38.224,84.743 39.623,85.879C41.021,87.014 42.93,87.961 45.229,88.75C49.827,90.329 56.016,91.266 62.848,91.266C69.68,91.266 75.868,90.329 80.466,88.75C82.766,87.96 84.674,87.014 86.073,85.88C87.471,84.744 88.383,83.356 88.383,81.833C88.383,80.31 87.471,78.921 86.073,77.786C84.674,76.65 82.765,75.704 80.466,74.915C75.868,73.335 69.68,72.399 62.848,72.399Z" style="fill:rgb(124,179,66);fill-rule:nonzero;"/>
                </g>
            </g>
            <path d="M62.848,69.62C56.016,69.62 49.828,70.558 45.229,72.136C42.929,72.926 41.021,73.872 39.623,75.007C38.224,76.142 37.311,77.531 37.311,79.055C37.311,80.578 38.224,81.965 39.623,83.101C41.021,84.236 42.93,85.183 45.229,85.971C49.827,87.551 56.016,88.488 62.848,88.488C69.68,88.488 75.868,87.55 80.466,85.972C82.766,85.182 84.674,84.236 86.073,83.101C87.471,81.966 88.383,80.578 88.383,79.055C88.383,77.531 87.471,76.142 86.073,75.007C84.674,73.872 82.765,72.925 80.466,72.137C75.868,70.557 69.68,69.62 62.848,69.62Z" style="fill:rgb(164,208,113);fill-rule:nonzero;"/>
            <g>
                <path d="M62.848,66.842C56.016,66.842 49.828,67.779 45.229,69.358C42.929,70.148 41.021,71.094 39.623,72.228C38.224,73.364 37.311,74.753 37.311,76.276C37.311,77.8 38.224,79.187 39.623,80.322C41.021,81.458 42.93,82.404 45.229,83.194C49.827,84.772 56.016,85.709 62.848,85.709C69.68,85.709 75.868,84.772 80.466,83.194C82.766,82.404 84.674,81.458 86.073,80.322C87.471,79.187 88.383,77.8 88.383,76.276C88.383,74.753 87.471,73.364 86.073,72.229C84.674,71.094 82.765,70.147 80.466,69.358C75.868,67.779 69.68,66.842 62.848,66.842Z" style="fill:rgb(124,179,66);fill-rule:nonzero;"/>
                <path d="M62.848,64.064C56.016,64.064 49.828,65.001 45.229,66.58C42.929,67.369 41.021,68.315 39.623,69.45C38.224,70.586 37.311,71.975 37.311,73.498C37.311,75.021 38.224,76.408 39.623,77.544C41.021,78.679 42.93,79.626 45.229,80.415C49.827,81.994 56.016,82.931 62.848,82.931C69.68,82.931 75.868,81.994 80.466,80.415C82.766,79.625 84.674,78.679 86.073,77.545C87.471,76.409 88.383,75.021 88.383,73.498C88.383,71.975 87.471,70.586 86.073,69.451C84.674,68.315 82.765,67.369 80.466,66.58C75.868,65 69.68,64.064 62.848,64.064Z" style="fill:rgb(255,224,130);fill-rule:nonzero;"/>
                <path d="M62.848,61.285C56.016,61.285 49.828,62.223 45.229,63.801C42.929,64.591 41.021,65.537 39.623,66.672C38.224,67.808 37.311,69.196 37.311,70.72C37.311,72.243 38.224,73.63 39.623,74.766C41.021,75.901 42.93,76.848 45.229,77.636C49.827,79.216 56.016,80.153 62.848,80.153C69.68,80.153 75.868,79.215 80.466,77.637C82.766,76.847 84.674,75.901 86.073,74.766C87.471,73.631 88.383,72.243 88.383,70.72C88.383,69.196 87.471,67.808 86.073,66.672C84.674,65.537 82.765,64.591 80.466,63.802C75.868,62.222 69.68,61.285 62.848,61.285Z" style="fill:rgb(252,194,27);fill-rule:nonzero;"/>
                <path d="M62.848,58.507C56.016,58.507 49.828,59.444 45.229,61.023C42.929,61.813 41.021,62.759 39.623,63.894C38.224,65.029 37.311,66.418 37.311,67.941C37.311,69.465 38.224,70.852 39.623,71.987C41.021,73.123 42.93,74.069 45.229,74.859C49.827,76.437 56.016,77.374 62.848,77.374C69.68,77.374 75.868,76.437 80.466,74.859C82.766,74.069 84.674,73.123 86.073,71.987C87.471,70.852 88.383,69.465 88.383,67.941C88.383,66.418 87.471,65.029 86.073,63.894C84.674,62.759 82.765,61.812 80.466,61.023C75.868,59.444 69.68,58.507 62.848,58.507Z" style="fill:rgb(255,224,130);fill-rule:nonzero;"/>
                <g>
                    <path d="M62.848,55.729C56.016,55.729 49.828,56.666 45.229,58.245C42.929,59.034 41.021,59.98 39.623,61.115C38.224,62.251 37.311,63.64 37.311,65.163C37.311,66.686 38.224,68.073 39.623,69.209C41.021,70.344 42.93,71.291 45.229,72.08C49.827,73.659 56.016,74.596 62.848,74.596C69.68,74.596 75.868,73.659 80.466,72.08C82.766,71.29 84.674,70.344 86.073,69.21C87.471,68.074 88.383,66.686 88.383,65.163C88.383,63.64 87.471,62.251 86.073,61.116C84.674,59.98 82.765,59.034 80.466,58.245C75.868,56.666 69.68,55.729 62.848,55.729Z" style="fill:rgb(252,194,27);fill-rule:nonzero;"/>
                    <path d="M62.848,52.95C56.016,52.95 49.828,53.888 45.229,55.466C42.929,56.256 41.021,57.202 39.623,58.337C38.224,59.473 37.311,60.862 37.311,62.385C37.311,63.908 38.224,65.295 39.623,66.431C41.021,67.566 42.93,68.513 45.229,69.301C49.827,70.881 56.016,71.818 62.848,71.818C69.68,71.818 75.868,70.88 80.466,69.302C82.766,68.512 84.674,67.566 86.073,66.431C87.471,65.296 88.383,63.908 88.383,62.385C88.383,60.862 87.471,59.473 86.073,58.337C84.674,57.202 82.765,56.256 80.466,55.467C75.868,53.887 69.68,52.95 62.848,52.95Z" style="fill:rgb(242,141,94);fill-rule:nonzero;"/>
                    <path d="M62.848,50.172C56.016,50.172 49.828,51.109 45.229,52.688C42.929,53.478 41.021,54.424 39.623,55.559C38.224,56.694 37.311,58.083 37.311,59.606C37.311,61.13 38.224,62.517 39.623,63.653C41.021,64.788 42.93,65.734 45.229,66.523C49.827,68.103 56.016,69.039 62.848,69.039C69.68,69.039 75.868,68.102 80.466,66.524C82.766,65.734 84.674,64.788 86.073,63.653C87.471,62.517 88.383,61.13 88.383,59.606C88.383,58.083 87.471,56.694 86.073,55.559C84.674,54.424 82.765,53.477 80.466,52.688C75.868,51.109 69.68,50.172 62.848,50.172Z" style="fill:rgb(237,108,48);fill-rule:nonzero;"/>
                </g>
            </g>
            <path d="M62.848,47.394C56.016,47.394 49.828,48.331 45.229,49.91C42.929,50.699 41.021,51.645 39.623,52.78C38.224,53.916 37.311,55.305 37.311,56.828C37.311,58.351 38.224,59.739 39.623,60.874C41.021,62.009 42.93,62.956 45.229,63.745C49.827,65.324 56.016,66.261 62.848,66.261C69.68,66.261 75.868,65.324 80.466,63.745C82.766,62.956 84.674,62.009 86.073,60.875C87.471,59.739 88.383,58.351 88.383,56.828C88.383,55.305 87.471,53.916 86.073,52.781C84.674,51.645 82.765,50.699 80.466,49.91C75.868,48.331 69.68,47.394 62.848,47.394Z" style="fill:rgb(242,141,94);fill-rule:nonzero;"/>
            <g>
                <path d="M62.848,44.615C56.016,44.615 49.828,45.553 45.229,47.131C42.929,47.921 41.021,48.867 39.623,50.002C38.224,51.138 37.311,52.527 37.311,54.05C37.311,55.573 38.224,56.96 39.623,58.096C41.021,59.231 42.93,60.178 45.229,60.966C49.827,62.546 56.016,63.483 62.848,63.483C69.68,63.483 75.868,62.546 80.466,60.967C82.766,60.177 84.674,59.231 86.073,58.096C87.471,56.961 88.383,55.573 88.383,54.05C88.383,52.527 87.471,51.138 86.073,50.002C84.674,48.867 82.765,47.921 80.466,47.132C75.868,45.552 69.68,44.615 62.848,44.615Z" style="fill:rgb(237,108,48);fill-rule:nonzero;"/>
                <path d="M62.848,41.837C56.016,41.837 49.828,42.774 45.229,44.353C42.929,45.143 41.021,46.089 39.623,47.224C38.224,48.359 37.311,49.748 37.311,51.272C37.311,52.795 38.224,54.182 39.623,55.318C41.021,56.453 42.93,57.399 45.229,58.188C49.827,59.768 56.016,60.704 62.848,60.704C69.68,60.704 75.868,59.767 80.466,58.189C82.766,57.399 84.674,56.453 86.073,55.318C87.471,54.182 88.383,52.795 88.383,51.272C88.383,49.748 87.471,48.359 86.073,47.224C84.674,46.089 82.765,45.142 80.466,44.353C75.868,42.774 69.68,41.837 62.848,41.837Z" style="fill:rgb(247,92,92);fill-rule:nonzero;stroke:rgb(229,115,115);stroke-width:1px;"/>
                <path d="M62.848,39.059C56.016,39.059 49.828,39.996 45.229,41.575C42.929,42.364 41.021,43.311 39.623,44.445C38.224,45.581 37.311,46.97 37.311,48.493C37.311,50.017 38.224,51.404 39.623,52.539C41.021,53.674 42.93,54.621 45.229,55.41C49.827,56.989 56.016,57.926 62.848,57.926C69.68,57.926 75.868,56.989 80.466,55.41C82.766,54.621 84.674,53.674 86.073,52.54C87.471,51.404 88.383,50.017 88.383,48.493C88.383,46.97 87.471,45.581 86.073,44.446C84.674,43.311 82.765,42.364 80.466,41.575C75.868,39.996 69.68,39.059 62.848,39.059Z" style="fill:rgb(219,68,55);fill-rule:nonzero;"/>
            </g>
        </g>
        <path d="M62.848,40.401C62.848,40.401 87.729,39.386 98.276,52.33C108.823,65.274 115.342,69.588 118.986,70.643" style="fill:none;fill-rule:nonzero;stroke:rgb(219,68,55);stroke-width:2px;stroke-linecap:round;stroke-miterlimit:4;"/>
        <ellipse cx="62.847" cy="40.444" rx="30.712" ry="14.508" style="fill:rgb(213,115,11);"/>
        <ellipse cx="62.449" cy="37.856" rx="7.415" ry="3.503" style="fill:rgb(70,38,4);"/>
    </g>
    <path d="M44.754,46.187C39.467,43.877 33.673,54.109 31.096,63.85C28.519,73.591 29.159,82.843 36.744,78.573C39.897,76.798 38.977,69.55 40.504,62.033C42.03,54.518 46.004,46.733 44.754,46.187Z" style="fill:white;fill-opacity:0.42;fill-rule:nonzero;"/>
</svg>
