<?xml version="1.0" encoding="UTF-8" standalone="no"?>
<!DOCTYPE svg PUBLIC "-//W3C//DTD SVG 1.1//EN" "http://www.w3.org/Graphics/SVG/1.1/DTD/svg11.dtd">
<svg width="100%" height="100%" viewBox="0 0 128 128" version="1.1" xmlns="http://www.w3.org/2000/svg" xmlns:xlink="http://www.w3.org/1999/xlink" xml:space="preserve" xmlns:serif="http://www.serif.com/" style="fill-rule:evenodd;clip-rule:evenodd;stroke-linejoin:round;stroke-miterlimit:2;">
    <path d="M63.8,9.47C1.28,9.47 -0.2,79.55 -0.2,93.42C-0.2,107.3 28.45,118.53 63.8,118.53C99.15,118.53 127.79,107.3 127.79,93.42C127.79,79.55 126.31,9.47 63.8,9.47Z" style="fill:rgb(252,194,27);fill-rule:nonzero;"/>
    <path d="M105.88,92.91C96.73,96.19 86.64,91.56 83.31,82.54C80,73.52 84.69,63.53 93.83,60.23C102.95,56.95 113.06,61.6 116.4,70.62C119.72,79.65 115,89.64 105.88,92.91Z" style="fill:rgb(252,194,27);fill-rule:nonzero;"/>
    <path d="M105.63,92.25C96.85,95.4 87.17,90.96 83.98,82.3C80.8,73.65 85.3,64.06 94.08,60.9C102.83,57.75 112.53,62.21 115.73,70.86C118.91,79.52 114.39,89.11 105.63,92.25Z" style="fill:rgb(252,192,28);fill-rule:nonzero;"/>
    <path d="M105.39,91.58C96.99,94.59 87.72,90.34 84.66,82.05C81.61,73.76 85.93,64.59 94.33,61.56C102.71,58.55 112,62.82 115.06,71.1C118.1,79.4 113.77,88.58 105.39,91.58Z" style="fill:rgb(252,190,28);fill-rule:nonzero;"/>
    <path d="M105.14,90.92C97.11,93.8 88.25,89.74 85.33,81.81C82.42,73.89 86.54,65.12 94.57,62.23C102.58,59.35 111.45,63.43 114.39,71.35C117.29,79.27 113.15,88.04 105.14,90.92Z" style="fill:rgb(251,187,29);fill-rule:nonzero;"/>
    <path d="M104.9,90.25C97.24,93 88.79,89.12 86.01,81.57C83.23,74.02 87.17,65.65 94.82,62.9C102.46,60.15 110.92,64.04 113.72,71.6C116.48,79.15 112.54,87.51 104.9,90.25Z" style="fill:rgb(251,185,30);fill-rule:nonzero;"/>
    <path d="M104.65,89.59C97.36,92.2 89.33,88.52 86.68,81.33C84.04,74.14 87.78,66.19 95.06,63.56C102.33,60.95 110.38,64.65 113.04,71.83C115.67,79.02 111.92,86.98 104.65,89.59Z" style="fill:rgb(251,183,30);fill-rule:nonzero;"/>
    <path d="M104.41,88.92C97.5,91.4 89.87,87.9 87.36,81.08C84.85,74.26 88.4,66.71 95.31,64.22C102.2,61.74 109.84,65.25 112.37,72.07C114.87,78.9 111.3,86.45 104.41,88.92Z" style="fill:rgb(251,181,31);fill-rule:nonzero;"/>
    <path d="M104.16,88.26C97.62,90.61 90.4,87.3 88.03,80.84C85.66,74.39 89.02,67.25 95.55,64.89C102.07,62.54 109.3,65.87 111.69,72.32C114.06,78.77 110.69,85.91 104.16,88.26Z" style="fill:rgb(250,178,32);fill-rule:nonzero;"/>
    <path d="M103.91,87.59C97.74,89.8 90.94,86.68 88.69,80.6C86.45,74.52 89.62,67.78 95.79,65.56C101.94,63.35 108.76,66.48 111.01,72.57C113.25,78.65 110.07,85.38 103.91,87.59Z" style="fill:rgb(250,176,32);fill-rule:nonzero;"/>
    <path d="M103.67,86.93C97.87,89.01 91.48,86.08 89.37,80.36C87.27,74.64 90.24,68.32 96.04,66.23C101.82,64.15 108.23,67.1 110.34,72.81C112.44,78.52 109.45,84.85 103.67,86.93Z" style="fill:rgb(250,174,33);fill-rule:nonzero;"/>
    <path d="M103.42,86.26C98,88.21 92.01,85.46 90.04,80.11C88.07,74.76 90.86,68.84 96.28,66.88C101.69,64.94 107.68,67.69 109.66,73.04C111.63,78.4 108.84,84.32 103.42,86.26Z" style="fill:rgb(250,172,34);fill-rule:nonzero;"/>
    <path d="M103.18,85.6C98.13,87.41 92.56,84.86 90.72,79.87C88.89,74.89 91.48,69.37 96.53,67.55C101.57,65.74 107.15,68.3 108.99,73.29C110.82,78.27 108.22,83.79 103.18,85.6Z" style="fill:rgb(249,169,34);fill-rule:nonzero;"/>
    <path d="M102.93,84.93C98.25,86.61 93.09,84.24 91.39,79.62C89.69,75.01 92.1,69.9 96.77,68.21C101.44,66.53 106.61,68.91 108.31,73.52C110.01,78.15 107.6,83.25 102.93,84.93Z" style="fill:rgb(249,167,35);fill-rule:nonzero;"/>
    <path d="M102.69,84.26C98.39,85.8 93.63,83.63 92.07,79.38C90.51,75.13 92.72,70.43 97.02,68.88C101.31,67.34 106.07,69.52 107.65,73.77C109.2,78.02 106.99,82.72 102.69,84.26Z" style="fill:rgb(249,165,36);fill-rule:nonzero;"/>
    <path d="M102.44,83.6C98.51,85.01 94.17,83.02 92.74,79.14C91.31,75.26 93.33,70.97 97.26,69.55C101.18,68.14 105.53,70.14 106.97,74.02C108.4,77.9 106.37,82.19 102.44,83.6Z" style="fill:rgb(249,163,36);fill-rule:nonzero;"/>
    <path d="M102.2,82.93C98.64,84.21 94.71,82.41 93.42,78.89C92.13,75.38 93.96,71.49 97.52,70.21C101.07,68.93 105.01,70.74 106.31,74.26C107.59,77.77 105.75,81.66 102.2,82.93Z" style="fill:rgb(248,160,37);fill-rule:nonzero;"/>
    <path d="M101.95,82.27C98.76,83.41 95.24,81.8 94.09,78.65C92.93,75.5 94.57,72.02 97.76,70.87C100.94,69.73 104.46,71.35 105.63,74.49C106.78,77.65 105.14,81.13 101.95,82.27Z" style="fill:rgb(248,158,38);fill-rule:nonzero;"/>
    <path d="M101.71,81.6C98.9,82.61 95.79,81.19 94.76,78.41C93.74,75.63 95.19,72.56 98,71.54C100.81,70.53 103.92,71.96 104.95,74.74C105.97,77.52 104.52,80.59 101.71,81.6Z" style="fill:rgb(248,156,38);fill-rule:nonzero;"/>
    <path d="M101.46,80.94C99.02,81.82 96.32,80.58 95.43,78.17C94.54,75.76 95.8,73.09 98.24,72.21C100.68,71.33 103.38,72.58 104.27,74.99C105.16,77.4 103.9,80.06 101.46,80.94Z" style="fill:rgb(248,154,39);fill-rule:nonzero;"/>
    <path d="M101.22,80.27C99.15,81.01 96.86,79.96 96.11,77.92C95.36,75.88 96.42,73.62 98.49,72.87C100.56,72.13 102.84,73.18 103.6,75.23C104.35,77.27 103.29,79.53 101.22,80.27Z" style="fill:rgb(247,151,40);fill-rule:nonzero;"/>
    <path d="M100.97,79.61C99.27,80.22 97.4,79.36 96.78,77.68C96.16,76 97.04,74.15 98.73,73.54C100.43,72.93 102.3,73.79 102.92,75.47C103.54,77.15 102.67,79 100.97,79.61Z" style="fill:rgb(247,149,40);fill-rule:nonzero;"/>
    <path d="M100.73,78.94C99.41,79.41 97.94,78.74 97.46,77.44C96.98,76.13 97.66,74.69 98.99,74.21C100.31,73.73 101.78,74.41 102.26,75.72C102.74,77.02 102.05,78.46 100.73,78.94Z" style="fill:rgb(247,147,41);fill-rule:nonzero;"/>
    <g>
        <path d="M32.5,92.25C23.35,95.53 13.26,90.9 9.93,81.87C6.61,72.85 11.31,62.86 20.45,59.56C29.57,56.28 39.68,60.93 43.02,69.95C46.34,78.98 41.62,88.97 32.5,92.25Z" style="fill:rgb(252,194,27);fill-rule:nonzero;"/>
        <path d="M32.25,91.58C23.47,94.73 13.79,90.29 10.6,81.62C7.42,72.97 11.92,63.39 20.7,60.22C29.45,57.08 39.15,61.53 42.35,70.19C45.53,78.86 41.01,88.44 32.25,91.58Z" style="fill:rgb(252,192,28);fill-rule:nonzero;"/>
        <path d="M32.01,90.92C23.61,93.93 14.34,89.68 11.28,81.39C8.23,73.11 12.55,63.93 20.95,60.9C29.33,57.89 38.62,62.16 41.68,70.45C44.72,78.73 40.39,87.91 32.01,90.92Z" style="fill:rgb(252,190,28);fill-rule:nonzero;"/>
        <path d="M31.76,90.25C23.73,93.13 14.87,89.07 11.95,81.14C9.04,73.22 13.16,64.46 21.19,61.56C29.2,58.68 38.07,62.76 41.01,70.68C43.91,78.6 39.77,87.38 31.76,90.25Z" style="fill:rgb(251,187,29);fill-rule:nonzero;"/>
        <path d="M31.52,89.59C23.86,92.34 15.41,88.46 12.63,80.9C9.85,73.35 13.79,64.99 21.44,62.23C29.08,59.49 37.54,63.37 40.34,70.93C43.1,78.48 39.16,86.84 31.52,89.59Z" style="fill:rgb(251,185,30);fill-rule:nonzero;"/>
        <path d="M31.27,88.92C23.98,91.53 15.95,87.85 13.3,80.65C10.66,73.47 14.4,65.51 21.68,62.88C28.95,60.27 37,63.97 39.66,71.16C42.29,78.35 38.54,86.31 31.27,88.92Z" style="fill:rgb(251,183,30);fill-rule:nonzero;"/>
        <path d="M31.03,88.26C24.12,90.74 16.49,87.24 13.98,80.42C11.47,73.6 15.02,66.06 21.93,63.56C28.82,61.08 36.46,64.59 38.99,71.41C41.49,78.23 37.92,85.78 31.03,88.26Z" style="fill:rgb(251,181,31);fill-rule:nonzero;"/>
        <path d="M30.78,87.59C24.24,89.94 17.02,86.63 14.65,80.17C12.28,73.72 15.64,66.58 22.17,64.22C28.69,61.88 35.92,65.2 38.31,71.65C40.68,78.1 37.31,85.25 30.78,87.59Z" style="fill:rgb(250,178,32);fill-rule:nonzero;"/>
        <path d="M30.54,86.93C24.37,89.14 17.57,86.02 15.32,79.93C13.08,73.85 16.25,67.11 22.42,64.89C28.57,62.68 35.39,65.81 37.64,71.9C39.87,77.98 36.69,84.71 30.54,86.93Z" style="fill:rgb(250,176,32);fill-rule:nonzero;"/>
        <path d="M30.29,86.26C24.49,88.34 18.1,85.41 15.99,79.68C13.89,73.97 16.86,67.64 22.66,65.55C28.44,63.47 34.85,66.41 36.96,72.13C39.06,77.85 36.07,84.18 30.29,86.26Z" style="fill:rgb(250,174,33);fill-rule:nonzero;"/>
        <path d="M30.05,85.6C24.63,87.54 18.64,84.8 16.67,79.45C14.7,74.1 17.49,68.18 22.91,66.23C28.32,64.29 34.31,67.04 36.29,72.39C38.25,77.73 35.46,83.65 30.05,85.6Z" style="fill:rgb(250,172,34);fill-rule:nonzero;"/>
        <path d="M29.8,84.93C24.75,86.74 19.18,84.18 17.34,79.2C15.51,74.22 18.1,68.71 23.15,66.88C28.19,65.07 33.77,67.63 35.61,72.62C37.44,77.6 34.84,83.12 29.8,84.93Z" style="fill:rgb(249,169,34);fill-rule:nonzero;"/>
        <path d="M29.55,84.26C24.87,85.94 19.71,83.57 18.01,78.95C16.31,74.34 18.72,69.23 23.39,67.54C28.06,65.86 33.23,68.24 34.93,72.85C36.63,77.48 34.22,82.59 29.55,84.26Z" style="fill:rgb(249,167,35);fill-rule:nonzero;"/>
        <path d="M29.31,83.6C25.01,85.14 20.25,82.96 18.69,78.71C17.13,74.47 19.34,69.76 23.64,68.21C27.93,66.67 32.69,68.85 34.27,73.1C35.83,77.35 33.61,82.05 29.31,83.6Z" style="fill:rgb(249,165,36);fill-rule:nonzero;"/>
        <path d="M29.06,82.93C25.13,84.34 20.79,82.35 19.36,78.47C17.93,74.59 19.95,70.3 23.88,68.88C27.8,67.47 32.15,69.46 33.59,73.35C35.02,77.23 32.99,81.52 29.06,82.93Z" style="fill:rgb(249,163,36);fill-rule:nonzero;"/>
        <path d="M28.82,82.27C25.26,83.54 21.33,81.74 20.04,78.23C18.75,74.72 20.58,70.83 24.14,69.55C27.69,68.27 31.63,70.08 32.93,73.59C34.21,77.1 32.37,80.99 28.82,82.27Z" style="fill:rgb(248,160,37);fill-rule:nonzero;"/>
        <path d="M28.57,81.6C25.38,82.74 21.86,81.13 20.7,77.98C19.54,74.84 21.18,71.36 24.37,70.21C27.55,69.07 31.07,70.68 32.24,73.83C33.4,76.98 31.76,80.46 28.57,81.6Z" style="fill:rgb(248,158,38);fill-rule:nonzero;"/>
        <path d="M28.33,80.94C25.52,81.95 22.41,80.52 21.38,77.74C20.36,74.97 21.81,71.89 24.62,70.88C27.43,69.87 30.54,71.3 31.57,74.08C32.59,76.85 31.14,79.93 28.33,80.94Z" style="fill:rgb(248,156,38);fill-rule:nonzero;"/>
        <path d="M28.08,80.27C25.64,81.14 22.94,79.91 22.05,77.5C21.16,75.09 22.42,72.42 24.86,71.54C27.3,70.66 30,71.9 30.89,74.31C31.78,76.73 30.52,79.39 28.08,80.27Z" style="fill:rgb(248,154,39);fill-rule:nonzero;"/>
        <path d="M27.84,79.61C25.77,80.35 23.48,79.3 22.73,77.26C21.98,75.22 23.04,72.96 25.11,72.21C27.18,71.47 29.47,72.52 30.22,74.56C30.97,76.6 29.91,78.86 27.84,79.61Z" style="fill:rgb(247,151,40);fill-rule:nonzero;"/>
        <path d="M27.59,78.94C25.9,79.55 24.02,78.69 23.4,77.01C22.78,75.34 23.66,73.48 25.35,72.87C27.05,72.26 28.92,73.12 29.54,74.8C30.16,76.48 29.29,78.33 27.59,78.94Z" style="fill:rgb(247,149,40);fill-rule:nonzero;"/>
        <path d="M27.35,78.28C26.03,78.75 24.56,78.08 24.08,76.77C23.6,75.47 24.28,74.01 25.61,73.54C26.93,73.07 28.4,73.73 28.88,75.04C29.36,76.35 28.67,77.8 27.35,78.28Z" style="fill:rgb(247,147,41);fill-rule:nonzero;"/>
    </g>
    <path d="M29.96,66.18C29.188,67.454 27.509,67.872 26.23,67.11C24.954,66.352 24.522,64.682 25.27,63.4C25.45,63.09 29.87,55.78 39.64,55.78C49.42,55.78 53.84,63.09 54.03,63.4C54.273,63.818 54.401,64.292 54.401,64.775C54.401,66.274 53.169,67.508 51.67,67.51C50.75,67.51 49.84,67.04 49.33,66.19C49.2,65.97 46.21,61.23 39.64,61.23C33.07,61.22 30.1,65.97 29.96,66.18ZM102,67.12C101.57,67.38 101.09,67.5 100.63,67.5C99.69,67.5 98.78,67.01 98.27,66.16C98.16,65.96 95.19,61.22 88.61,61.22C81.92,61.22 78.95,66.11 78.92,66.16C78.424,66.962 77.546,67.452 76.603,67.452C75.108,67.452 73.879,66.223 73.879,64.728C73.879,64.259 74,63.798 74.23,63.39C74.41,63.08 78.83,55.77 88.61,55.77C98.38,55.77 102.79,63.08 102.97,63.39C103.73,64.69 103.29,66.37 102,67.12ZM64.45,94.1C44.67,94.1 36.07,83.72 35.71,83.28C34.59,81.89 34.81,79.86 36.19,78.74C37.57,77.63 39.59,77.84 40.71,79.21C41.03,79.59 47.96,87.64 64.44,87.64C80.28,87.64 86.45,78.37 86.7,77.97C87.657,76.488 89.659,76.047 91.15,76.99C92.65,77.94 93.1,79.91 92.16,81.42C91.85,81.94 84.02,94.1 64.45,94.1Z" style="fill:rgb(47,47,47);fill-rule:nonzero;"/>
    <g id="Ebene1">
        <clipPath id="_clip1">
            <path d="M99.628,3.634C95.418,3.634 91.81,5.947 90.271,9.334C88.731,5.947 85.124,3.634 80.913,3.634C75.316,3.634 70.761,7.831 70.761,12.988C70.761,20.161 76.032,23.57 81.126,26.861C84.354,28.947 87.688,31.104 89.519,34.191C89.601,34.528 89.906,34.768 90.253,34.769L90.289,34.769C90.559,34.769 90.799,34.609 90.934,34.375C90.959,34.332 90.979,34.287 90.994,34.24C92.818,31.125 96.17,28.958 99.416,26.861C104.509,23.57 109.781,20.161 109.781,12.988C109.781,7.831 105.226,3.634 99.628,3.634ZM22.89,33.393C19.45,34.238 16.966,36.852 16.388,39.929C14.451,37.469 11.038,36.304 7.598,37.149C3.025,38.273 0.146,42.616 1.181,46.83C2.621,52.69 7.612,54.418 12.435,56.085C15.491,57.141 18.649,58.235 20.764,60.388C20.899,60.647 21.196,60.782 21.48,60.713L21.509,60.706C21.772,60.636 21.961,60.404 21.979,60.133C22.844,57.222 25.148,54.778 27.379,52.413C30.88,48.701 34.503,44.858 33.063,38.997C32.027,34.783 27.463,32.269 22.89,33.392L22.89,33.393ZM117.933,88.208C114.793,86.568 111.201,86.888 108.733,88.815C108.905,85.689 107.115,82.559 103.975,80.919C99.8,78.739 94.769,80.095 92.76,83.942C89.967,89.292 92.57,93.886 95.088,98.325C96.683,101.138 98.33,104.045 98.493,107.06C98.423,107.344 98.557,107.641 98.815,107.777L98.842,107.791C99.086,107.912 99.381,107.863 99.574,107.671C102.147,106.059 105.491,105.748 108.728,105.448C113.809,104.977 119.068,104.488 121.861,99.138C123.871,95.291 122.107,90.388 117.933,88.208Z" clip-rule="nonzero"/>
        </clipPath>
        <g clip-path="url(#_clip1)">
            <g transform="matrix(0.449815,0,0,0.324645,58.0556,7.66447)">
                <rect x="22.943" y="3.634" width="99.748" height="16.049" style="fill:rgb(237,108,48);"/>
            </g>
            <g transform="matrix(0.44084,-0.0894044,0.0555998,0.274154,-14.778,44.1968)">
                <rect x="22.943" y="3.634" width="99.748" height="16.049" style="fill:rgb(239,108,0);"/>
            </g>
            <g transform="matrix(0.439569,0.0839857,-0.0385115,0.293123,72.0315,77.7266)">
                <rect x="22.943" y="3.634" width="99.748" height="16.049" style="fill:rgb(237,108,48);"/>
            </g>
            <g transform="matrix(0.449815,0,0,0.324645,58.0556,18.0849)">
                <rect x="22.943" y="3.634" width="99.748" height="16.049" style="fill:rgb(142,197,79);"/>
            </g>
            <g transform="matrix(0.44084,-0.0894044,0.0555998,0.274154,-12.9934,52.9967)">
                <rect x="22.943" y="3.634" width="99.748" height="16.049" style="fill:rgb(124,179,66);"/>
            </g>
            <g transform="matrix(0.439569,0.0839857,-0.0385115,0.293123,70.7953,87.1353)">
                <rect x="22.943" y="3.634" width="99.748" height="16.049" style="fill:rgb(142,197,79);"/>
            </g>
            <g transform="matrix(0.449815,0,0,0.324645,58.0556,23.2952)">
                <rect x="22.943" y="3.634" width="99.748" height="16.049" style="fill:rgb(46,130,189);"/>
            </g>
            <g transform="matrix(0.44084,-0.0894044,0.0555998,0.274154,-12.1011,57.3966)">
                <rect x="22.943" y="3.634" width="99.748" height="16.049" style="fill:rgb(46,130,189);"/>
            </g>
            <g transform="matrix(0.439569,0.0839857,-0.0385115,0.293123,70.1773,91.8396)">
                <rect x="22.943" y="3.634" width="99.748" height="16.049" style="fill:rgb(46,130,189);"/>
            </g>
            <g transform="matrix(0.449815,0,0,0.324645,58.0556,28.5054)">
                <rect x="22.943" y="3.634" width="99.748" height="16.049" style="fill:rgb(149,49,166);"/>
            </g>
            <g transform="matrix(0.44084,-0.0894044,0.0555998,0.274154,-11.2087,61.7965)">
                <rect x="22.943" y="3.634" width="99.748" height="16.049" style="fill:rgb(149,49,166);"/>
            </g>
            <g transform="matrix(0.439569,0.0839857,-0.0385115,0.293123,69.5592,96.544)">
                <rect x="22.943" y="3.634" width="99.748" height="16.049" style="fill:rgb(149,49,166);"/>
            </g>
            <g transform="matrix(0.449815,0,0,0.324645,58.0556,2.45424)">
                <rect x="22.943" y="3.634" width="99.748" height="16.049" style="fill:rgb(211,48,44);"/>
            </g>
            <g transform="matrix(0.44084,-0.0894044,0.0555998,0.274154,-15.6704,39.7969)">
                <rect x="22.943" y="3.634" width="99.748" height="16.049" style="fill:rgb(211,48,44);"/>
            </g>
            <g transform="matrix(0.439569,0.0839857,-0.0385115,0.293123,72.6496,73.0223)">
                <rect x="22.943" y="3.634" width="99.748" height="16.049" style="fill:rgb(211,48,44);"/>
            </g>
            <g transform="matrix(0.449815,0,0,0.324645,58.0556,12.8747)">
                <rect x="22.943" y="3.634" width="99.748" height="16.049" style="fill:rgb(251,199,70);"/>
            </g>
            <g transform="matrix(0.44084,-0.0894044,0.0555998,0.274154,-13.8857,48.5967)">
                <rect x="22.943" y="3.634" width="99.748" height="16.049" style="fill:rgb(253,221,78);"/>
            </g>
            <g transform="matrix(0.439569,0.0839857,-0.0385115,0.293123,71.4134,82.431)">
                <rect x="22.943" y="3.634" width="99.748" height="16.049" style="fill:rgb(251,199,70);"/>
            </g>
        </g>
    </g>
</svg>
