<?xml version="1.0" encoding="UTF-8" standalone="no"?>
<!DOCTYPE svg PUBLIC "-//W3C//DTD SVG 1.1//EN" "http://www.w3.org/Graphics/SVG/1.1/DTD/svg11.dtd">
<svg width="100%" height="100%" viewBox="0 0 128 128" version="1.1" xmlns="http://www.w3.org/2000/svg" xmlns:xlink="http://www.w3.org/1999/xlink" xml:space="preserve" xmlns:serif="http://www.serif.com/" style="fill-rule:evenodd;clip-rule:evenodd;stroke-linecap:round;stroke-linejoin:round;">
    <g transform="matrix(1.10456,0,0,1.10456,-9.922,-11.092)">
        <path d="M64.128,98.337C75.918,105.597 76.167,102.967 86.485,103.381C95.624,103.747 96.597,114.917 111.465,113.124" style="fill:none;fill-rule:nonzero;stroke:rgb(66,173,231);stroke-width:2.72px;"/>
        <g transform="matrix(1,0,0,1,11.932,10.034)">
            <clipPath id="_clip1">
                <circle cx="43.254" cy="63.224" r="30.78"/>
            </clipPath>
            <g clip-path="url(#_clip1)">
                <path d="M30.737,24.287C30.724,24.287 30.711,24.287 30.699,24.287C29.876,24.287 29.199,24.964 29.199,25.787C29.199,26.23 29.395,26.651 29.735,26.936C30.075,27.221 55.099,48.892 83.539,55.924C83.657,55.953 83.778,55.968 83.9,55.968C84.723,55.968 85.4,55.29 85.4,54.467C85.4,53.779 84.928,53.175 84.26,53.01C56.836,46.229 31.694,24.664 31.694,24.664C31.429,24.43 31.09,24.296 30.737,24.287Z" style="fill:rgb(129,205,238);fill-rule:nonzero;stroke:rgb(66,173,231);stroke-width:1px;stroke-linejoin:miter;"/>
                <path d="M26.428,25.344C26.412,25.344 26.397,25.343 26.381,25.343C25.558,25.343 24.881,26.02 24.881,26.843C24.881,27.284 25.076,27.703 25.412,27.988C25.748,28.273 54.755,53.708 84.86,59.49C84.953,59.508 85.048,59.517 85.143,59.517C85.966,59.517 86.643,58.84 86.643,58.017C86.643,57.3 86.13,56.678 85.426,56.543C56.6,51.006 27.383,25.725 27.383,25.725C27.12,25.49 26.781,25.355 26.428,25.344Z" style="fill:rgb(129,205,238);fill-rule:nonzero;stroke:rgb(66,173,231);stroke-width:1px;stroke-linejoin:miter;"/>
                <path d="M24.702,28.315C24.686,28.315 24.671,28.314 24.655,28.314C23.832,28.314 23.155,28.991 23.155,29.814C23.155,30.255 23.35,30.674 23.686,30.959C24.022,31.244 53.028,56.679 83.133,62.461C83.238,62.484 83.345,62.496 83.453,62.496C84.276,62.496 84.953,61.818 84.953,60.996C84.953,60.266 84.42,59.636 83.7,59.516C54.872,53.978 25.657,28.697 25.657,28.697C25.394,28.461 25.055,28.326 24.702,28.315Z" style="fill:rgb(164,208,113);fill-rule:nonzero;stroke:rgb(124,179,66);stroke-width:1px;stroke-linejoin:miter;"/>
                <path d="M22.975,31.383C22.96,31.383 22.945,31.382 22.93,31.382C22.108,31.382 21.43,32.059 21.43,32.882C21.43,33.323 21.625,33.742 21.961,34.027C22.297,34.312 51.304,59.747 81.41,65.53C81.516,65.553 81.624,65.565 81.733,65.565C82.556,65.565 83.233,64.888 83.233,64.065C83.233,63.334 82.698,62.704 81.976,62.585C53.148,57.047 23.93,31.766 23.93,31.766C23.667,31.53 23.328,31.394 22.975,31.383Z" style="fill:rgb(164,208,113);fill-rule:nonzero;stroke:rgb(124,179,66);stroke-width:1px;stroke-linejoin:miter;"/>
                <g transform="matrix(1,0,0,1,-10.635,28.9423)">
                    <path d="M22.975,31.383C22.96,31.383 22.945,31.382 22.93,31.382C22.108,31.382 21.43,32.059 21.43,32.882C21.43,33.323 21.625,33.742 21.961,34.027C22.297,34.312 51.304,59.747 81.41,65.53C81.516,65.553 81.624,65.565 81.733,65.565C82.556,65.565 83.233,64.888 83.233,64.065C83.233,63.334 82.698,62.704 81.976,62.585C53.148,57.047 23.93,31.766 23.93,31.766C23.667,31.53 23.328,31.394 22.975,31.383Z" style="fill:rgb(181,111,193);fill-rule:nonzero;stroke:rgb(149,49,166);stroke-width:1px;stroke-linejoin:miter;"/>
                </g>
                <path d="M21.825,34.836C21.809,34.835 21.793,34.835 21.777,34.835C20.954,34.835 20.277,35.512 20.277,36.335C20.277,36.777 20.472,37.196 20.809,37.481C21.146,37.766 50.153,63.198 80.259,68.981C80.361,69.002 80.464,69.013 80.568,69.013C81.391,69.013 82.068,68.336 82.068,67.513C82.068,66.786 81.539,66.159 80.823,66.035C51.995,60.498 22.78,35.217 22.78,35.217C22.516,34.982 22.178,34.847 21.825,34.837L21.825,34.836Z" style="fill:rgb(164,208,113);fill-rule:nonzero;stroke:rgb(124,179,66);stroke-width:1px;stroke-linejoin:miter;"/>
                <path d="M20.291,38C20.275,38 20.26,37.999 20.244,37.999C19.421,37.999 18.744,38.676 18.744,39.499C18.744,39.941 18.939,40.36 19.276,40.645C19.613,40.93 48.618,66.362 78.723,72.145C78.821,72.165 78.92,72.175 79.019,72.175C79.842,72.175 80.519,71.497 80.519,70.675C80.519,69.953 79.999,69.329 79.289,69.199C50.462,63.662 21.246,38.381 21.246,38.381C20.982,38.146 20.644,38.011 20.291,38.001L20.291,38Z" style="fill:rgb(164,208,113);fill-rule:nonzero;stroke:rgb(124,179,66);stroke-width:1px;stroke-linejoin:miter;"/>
                <g>
                    <path d="M13.245,63.067C13.233,63.067 13.22,63.067 13.208,63.067C12.385,63.067 11.708,63.744 11.708,64.567C11.708,65.009 11.904,65.43 12.243,65.715C12.582,66 37.608,87.671 66.048,94.704C66.166,94.733 66.287,94.748 66.408,94.748C67.231,94.748 67.909,94.07 67.909,93.247C67.909,92.559 67.436,91.955 66.768,91.79C39.345,85.009 14.202,63.444 14.202,63.444C13.937,63.21 13.598,63.076 13.245,63.067Z" style="fill:rgb(181,111,193);fill-rule:nonzero;stroke:rgb(149,49,166);stroke-width:1px;stroke-linejoin:miter;"/>
                    <path d="M8.937,64.124C8.921,64.124 8.906,64.123 8.89,64.123C8.067,64.123 7.39,64.8 7.39,65.623C7.39,66.064 7.585,66.483 7.921,66.768C8.257,67.053 37.263,92.488 67.368,98.27C67.461,98.288 67.556,98.297 67.652,98.297C68.475,98.297 69.152,97.62 69.152,96.797C69.152,96.08 68.639,95.458 67.935,95.323C39.107,89.785 9.892,64.504 9.892,64.504C9.628,64.269 9.29,64.134 8.937,64.124Z" style="fill:rgb(181,111,193);fill-rule:nonzero;stroke:rgb(149,49,166);stroke-width:1px;stroke-linejoin:miter;"/>
                    <path d="M7.21,67.094C7.194,67.093 7.178,67.093 7.162,67.093C6.339,67.093 5.662,67.77 5.662,68.593C5.662,69.035 5.857,69.454 6.194,69.739C6.531,70.024 35.537,95.458 65.642,101.241C65.74,101.261 65.839,101.271 65.938,101.271C66.761,101.271 67.438,100.593 67.438,99.771C67.438,99.049 66.918,98.425 66.208,98.295C37.381,92.758 8.165,67.477 8.165,67.477C7.902,67.241 7.563,67.105 7.21,67.094Z" style="fill:rgb(181,111,193);fill-rule:nonzero;stroke:rgb(149,49,166);stroke-width:1px;stroke-linejoin:miter;"/>
                    <path d="M5.483,70.163C5.468,70.163 5.454,70.162 5.439,70.162C4.617,70.162 3.939,70.839 3.939,71.662C3.939,72.103 4.134,72.522 4.47,72.807C4.806,73.092 33.812,98.527 63.917,104.309C64.023,104.332 64.131,104.344 64.24,104.344C65.063,104.344 65.74,103.667 65.74,102.844C65.74,102.113 65.205,101.483 64.483,101.364C35.656,95.826 6.438,70.545 6.438,70.545C6.175,70.309 5.836,70.174 5.483,70.163Z" style="fill:rgb(181,111,193);fill-rule:nonzero;stroke:rgb(149,49,166);stroke-width:1px;stroke-linejoin:miter;"/>
                    <path d="M4.333,73.616C4.317,73.616 4.302,73.615 4.286,73.615C3.463,73.615 2.786,74.292 2.786,75.115C2.786,75.556 2.981,75.975 3.317,76.26C3.653,76.545 32.662,101.977 62.767,107.76C62.875,107.784 62.985,107.796 63.095,107.796C63.918,107.796 64.595,107.119 64.595,106.296C64.595,105.562 64.056,104.93 63.331,104.815C34.504,99.278 5.288,73.997 5.288,73.997C5.025,73.762 4.686,73.627 4.333,73.616Z" style="fill:rgb(181,111,193);fill-rule:nonzero;stroke:rgb(149,49,166);stroke-width:1px;stroke-linejoin:miter;"/>
                    <path d="M2.8,76.78C2.784,76.78 2.769,76.779 2.753,76.779C1.93,76.779 1.253,77.456 1.253,78.279C1.253,78.72 1.448,79.139 1.784,79.424C2.12,79.709 31.127,105.141 61.231,110.924C61.336,110.947 61.443,110.959 61.551,110.959C62.374,110.959 63.051,110.281 63.051,109.459C63.051,108.729 62.518,108.099 61.798,107.979C32.97,102.442 3.755,77.161 3.755,77.161C3.492,76.926 3.153,76.791 2.8,76.78Z" style="fill:rgb(181,111,193);fill-rule:nonzero;stroke:rgb(149,49,166);stroke-width:1px;stroke-linejoin:miter;"/>
                </g>
                <g>
                    <path d="M43.212,7.474L43.174,7.474C42.351,7.474 41.674,8.151 41.674,8.974C41.674,9.416 41.87,9.837 42.209,10.122C42.548,10.407 67.574,32.078 96.014,39.11C96.132,39.139 96.253,39.154 96.374,39.154C97.197,39.154 97.875,38.476 97.875,37.653C97.875,36.965 97.402,36.361 96.734,36.196C69.312,29.416 44.169,7.851 44.169,7.851C43.904,7.617 43.565,7.483 43.212,7.474Z" style="fill:rgb(129,205,238);fill-rule:nonzero;stroke:rgb(66,173,231);stroke-width:1px;stroke-linejoin:miter;"/>
                    <path d="M38.903,8.53C38.887,8.529 38.871,8.529 38.855,8.529C38.032,8.529 37.355,9.206 37.355,10.029C37.355,10.471 37.55,10.89 37.887,11.175C38.224,11.46 67.229,36.894 97.334,42.677C97.427,42.695 97.522,42.704 97.618,42.704C98.441,42.704 99.118,42.027 99.118,41.204C99.118,40.487 98.605,39.865 97.901,39.73C69.074,34.192 39.858,8.91 39.858,8.91C39.594,8.675 39.256,8.54 38.903,8.53Z" style="fill:rgb(129,205,238);fill-rule:nonzero;stroke:rgb(66,173,231);stroke-width:1px;stroke-linejoin:miter;"/>
                    <path d="M37.176,11.501C37.16,11.5 37.144,11.5 37.128,11.5C36.305,11.5 35.628,12.177 35.628,13C35.628,13.442 35.823,13.861 36.16,14.146C36.497,14.431 65.503,39.865 95.608,45.648C95.706,45.668 95.805,45.678 95.904,45.678C96.727,45.678 97.404,45 97.404,44.178C97.404,43.456 96.884,42.832 96.174,42.702C67.347,37.165 38.131,11.884 38.131,11.884C37.868,11.648 37.529,11.512 37.176,11.501Z" style="fill:rgb(129,205,238);fill-rule:nonzero;stroke:rgb(66,173,231);stroke-width:1px;stroke-linejoin:miter;"/>
                    <path d="M35.45,14.57C35.435,14.57 35.42,14.569 35.405,14.569C34.583,14.569 33.905,15.246 33.905,16.069C33.905,16.51 34.1,16.929 34.436,17.214C34.772,17.499 63.778,42.933 93.883,48.716C93.988,48.739 94.095,48.751 94.203,48.751C95.026,48.751 95.703,48.073 95.703,47.251C95.703,46.521 95.17,45.891 94.45,45.771C65.622,40.233 36.405,14.952 36.405,14.952C36.142,14.716 35.803,14.58 35.45,14.569L35.45,14.57Z" style="fill:rgb(129,205,238);fill-rule:nonzero;stroke:rgb(66,173,231);stroke-width:1px;stroke-linejoin:miter;"/>
                    <path d="M34.3,18.023C34.284,18.023 34.269,18.022 34.253,18.022C33.43,18.022 32.753,18.699 32.753,19.522C32.753,19.963 32.948,20.382 33.284,20.667C33.62,20.952 62.628,46.384 92.733,52.167C92.841,52.191 92.951,52.203 93.061,52.203C93.884,52.203 94.561,51.526 94.561,50.703C94.561,49.969 94.022,49.337 93.297,49.222C64.47,43.684 35.254,18.403 35.254,18.403C34.99,18.168 34.652,18.033 34.299,18.023L34.3,18.023Z" style="fill:rgb(129,205,238);fill-rule:nonzero;stroke:rgb(66,173,231);stroke-width:1px;stroke-linejoin:miter;"/>
                    <path d="M32.766,21.187C32.75,21.187 32.735,21.186 32.719,21.186C31.896,21.186 31.219,21.863 31.219,22.686C31.219,23.127 31.414,23.546 31.75,23.831C32.086,24.116 61.093,49.548 91.198,55.331C91.304,55.354 91.412,55.366 91.521,55.366C92.344,55.366 93.021,54.689 93.021,53.866C93.021,53.135 92.486,52.505 91.764,52.386C62.937,46.848 33.721,21.567 33.721,21.567C33.457,21.332 33.119,21.197 32.766,21.187Z" style="fill:rgb(129,205,238);fill-rule:nonzero;stroke:rgb(66,173,231);stroke-width:1px;stroke-linejoin:miter;"/>
                </g>
                <g>
                    <path d="M27.614,97.806C27.602,97.806 27.589,97.806 27.577,97.806C26.754,97.806 26.077,97.129 26.077,96.306C26.077,95.864 26.273,95.443 26.612,95.158C26.951,94.873 51.976,73.202 80.416,66.169C80.534,66.14 80.655,66.125 80.777,66.125C81.6,66.125 82.278,66.803 82.278,67.626C82.278,68.315 81.805,68.919 81.137,69.084C53.713,75.864 28.571,97.429 28.571,97.429C28.306,97.663 27.967,97.797 27.614,97.806Z" style="fill:rgb(164,208,113);fill-rule:nonzero;stroke:rgb(124,179,66);stroke-width:1px;stroke-linejoin:miter;"/>
                    <path d="M23.305,96.75C23.289,96.751 23.273,96.751 23.257,96.751C22.434,96.751 21.757,96.074 21.757,95.251C21.757,94.809 21.952,94.39 22.289,94.105C22.626,93.82 51.632,68.385 81.737,62.603C81.83,62.585 81.925,62.576 82.02,62.576C82.843,62.576 83.52,63.253 83.52,64.076C83.52,64.793 83.007,65.415 82.303,65.55C53.476,71.088 24.26,96.37 24.26,96.37C23.996,96.605 23.658,96.74 23.305,96.75Z" style="fill:rgb(255,213,79);fill-rule:nonzero;stroke:rgb(252,194,27);stroke-width:1px;stroke-linejoin:miter;"/>
                    <path d="M21.578,93.779C21.562,93.779 21.547,93.78 21.531,93.78C20.708,93.78 20.031,93.103 20.031,92.28C20.031,91.838 20.226,91.419 20.563,91.134C20.9,90.849 49.905,65.415 80.01,59.632C80.103,59.614 80.198,59.605 80.294,59.605C81.116,59.605 81.794,60.282 81.794,61.105C81.794,61.821 81.28,62.443 80.577,62.578C51.749,68.115 22.534,93.396 22.534,93.396C22.271,93.632 21.932,93.768 21.578,93.779Z" style="fill:rgb(255,213,79);fill-rule:nonzero;stroke:rgb(252,194,27);stroke-width:1px;stroke-linejoin:miter;"/>
                    <path d="M19.852,90.71C19.837,90.71 19.822,90.711 19.807,90.711C18.985,90.711 18.307,90.034 18.307,89.211C18.307,88.77 18.502,88.351 18.838,88.066C19.174,87.781 48.181,62.346 78.285,56.564C78.39,56.541 78.497,56.529 78.605,56.529C79.428,56.529 80.105,57.207 80.105,58.029C80.105,58.759 79.572,59.389 78.852,59.509C50.025,65.047 20.807,90.328 20.807,90.328C20.544,90.564 20.205,90.699 19.852,90.71Z" style="fill:rgb(255,213,79);fill-rule:nonzero;stroke:rgb(252,194,27);stroke-width:1px;stroke-linejoin:miter;"/>
                    <path d="M18.702,87.257C18.686,87.257 18.671,87.258 18.655,87.258C17.832,87.258 17.155,86.581 17.155,85.758C17.155,85.317 17.35,84.898 17.686,84.613C18.022,84.328 47.03,58.896 77.136,53.113C77.244,53.089 77.354,53.077 77.464,53.077C78.287,53.077 78.964,53.754 78.964,54.577C78.964,55.311 78.425,55.943 77.7,56.058C48.872,61.596 19.657,86.877 19.657,86.877C19.393,87.112 19.055,87.247 18.702,87.257Z" style="fill:rgb(255,213,79);fill-rule:nonzero;stroke:rgb(252,194,27);stroke-width:1px;stroke-linejoin:miter;"/>
                    <path d="M17.168,84.093C17.153,84.093 17.138,84.094 17.122,84.094C16.299,84.094 15.622,83.417 15.622,82.594C15.622,82.153 15.817,81.734 16.153,81.449C16.489,81.164 45.495,55.732 75.6,49.949C75.706,49.926 75.814,49.914 75.923,49.914C76.746,49.914 77.423,50.591 77.423,51.414C77.423,52.145 76.888,52.775 76.166,52.894C47.34,58.432 18.123,83.712 18.123,83.712C17.86,83.947 17.521,84.082 17.168,84.093Z" style="fill:rgb(255,213,79);fill-rule:nonzero;stroke:rgb(252,194,27);stroke-width:1px;stroke-linejoin:miter;"/>
                </g>
                <g>
                    <path d="M18.936,82.62C18.923,82.62 18.91,82.62 18.898,82.62C18.075,82.62 17.398,81.943 17.398,81.12C17.398,80.677 17.594,80.256 17.934,79.971C18.274,79.686 43.298,58.015 71.738,50.983C71.856,50.954 71.977,50.939 72.099,50.939C72.922,50.939 73.599,51.617 73.599,52.44C73.599,53.128 73.127,53.732 72.459,53.897C45.035,60.678 19.893,82.243 19.893,82.243C19.628,82.477 19.289,82.611 18.936,82.62Z" style="fill:rgb(255,213,79);fill-rule:nonzero;stroke:rgb(252,194,27);stroke-width:1px;stroke-linejoin:miter;"/>
                    <path d="M14.627,81.563C14.611,81.563 14.596,81.564 14.58,81.564C13.757,81.564 13.08,80.887 13.08,80.064C13.08,79.623 13.275,79.204 13.611,78.919C13.947,78.634 42.954,53.199 73.059,47.417C73.152,47.399 73.247,47.39 73.342,47.39C74.165,47.39 74.842,48.067 74.842,48.89C74.842,49.607 74.329,50.229 73.625,50.364C44.798,55.9 15.582,81.182 15.582,81.182C15.319,81.417 14.98,81.552 14.627,81.563Z" style="fill:rgb(255,147,101);fill-rule:nonzero;stroke:rgb(237,108,48);stroke-width:1px;stroke-linejoin:miter;"/>
                    <path d="M12.9,78.592C12.885,78.592 12.87,78.593 12.854,78.593C12.031,78.593 11.354,77.916 11.354,77.093C11.354,76.652 11.549,76.233 11.885,75.948C12.221,75.663 41.227,50.228 71.332,44.446C71.437,44.423 71.544,44.411 71.652,44.411C72.475,44.411 73.152,45.089 73.152,45.911C73.152,46.641 72.619,47.271 71.899,47.391C43.07,52.93 13.856,78.21 13.856,78.21C13.592,78.446 13.254,78.581 12.9,78.592Z" style="fill:rgb(255,147,101);fill-rule:nonzero;stroke:rgb(237,108,48);stroke-width:1px;stroke-linejoin:miter;"/>
                    <path d="M11.174,75.524C11.159,75.524 11.144,75.525 11.129,75.525C10.307,75.525 9.629,74.848 9.629,74.025C9.629,73.584 9.824,73.165 10.16,72.88C10.496,72.595 39.503,47.16 69.608,41.378C69.714,41.355 69.822,41.343 69.931,41.343C70.754,41.343 71.431,42.02 71.431,42.843C71.431,43.574 70.896,44.204 70.174,44.323C41.347,49.86 12.129,75.14 12.129,75.14C11.866,75.376 11.527,75.512 11.174,75.523L11.174,75.524Z" style="fill:rgb(255,147,101);fill-rule:nonzero;stroke:rgb(237,108,48);stroke-width:1px;stroke-linejoin:miter;"/>
                    <path d="M10.024,72.07C10.008,72.07 9.993,72.071 9.977,72.071C9.154,72.071 8.477,71.394 8.477,70.571C8.477,70.13 8.672,69.711 9.008,69.426C9.344,69.141 38.352,43.709 68.458,37.926C68.56,37.905 68.663,37.894 68.767,37.894C69.59,37.894 70.267,38.571 70.267,39.394C70.267,40.121 69.738,40.748 69.022,40.872C40.194,46.409 10.979,71.69 10.979,71.69C10.715,71.925 10.377,72.06 10.024,72.07Z" style="fill:rgb(255,147,101);fill-rule:nonzero;stroke:rgb(237,108,48);stroke-width:1px;stroke-linejoin:miter;"/>
                    <path d="M8.49,68.907C8.474,68.907 8.459,68.908 8.443,68.908C7.62,68.908 6.943,68.231 6.943,67.408C6.943,66.966 7.138,66.547 7.475,66.262C7.812,65.977 36.817,40.545 66.922,34.762C67.02,34.742 67.119,34.732 67.218,34.732C68.041,34.732 68.718,35.41 68.718,36.232C68.718,36.954 68.198,37.578 67.488,37.708C38.661,43.245 9.445,68.526 9.445,68.526C9.181,68.761 8.843,68.896 8.49,68.906L8.49,68.907Z" style="fill:rgb(255,147,101);fill-rule:nonzero;stroke:rgb(237,108,48);stroke-width:1px;stroke-linejoin:miter;"/>
                </g>
                <g>
                    <path d="M19.483,42.186L19.445,42.186C18.622,42.186 17.945,42.863 17.945,43.686C17.945,44.128 18.141,44.549 18.48,44.834C18.819,45.119 43.845,66.79 72.285,73.822C72.403,73.851 72.524,73.866 72.645,73.866C73.468,73.866 74.146,73.188 74.146,72.365C74.146,71.677 73.673,71.073 73.005,70.908C45.583,64.128 20.44,42.562 20.44,42.562C20.175,42.328 19.836,42.195 19.483,42.186Z" style="fill:rgb(229,115,115);fill-rule:nonzero;stroke:rgb(219,68,55);stroke-width:1px;stroke-linejoin:miter;"/>
                    <path d="M15.174,43.242C15.158,43.241 15.142,43.241 15.126,43.241C14.303,43.241 13.626,43.918 13.626,44.741C13.626,45.183 13.821,45.602 14.158,45.887C14.495,46.172 43.501,71.606 73.605,77.389C73.698,77.407 73.793,77.416 73.889,77.416C74.712,77.416 75.39,76.738 75.39,75.915C75.39,75.198 74.876,74.576 74.172,74.441C45.345,68.904 16.129,43.623 16.129,43.623C15.865,43.388 15.527,43.253 15.174,43.243L15.174,43.242Z" style="fill:rgb(229,115,115);fill-rule:nonzero;stroke:rgb(219,68,55);stroke-width:1px;stroke-linejoin:miter;"/>
                    <path d="M13.447,46.213C13.432,46.213 13.417,46.212 13.401,46.212C12.578,46.212 11.901,46.889 11.901,47.712C11.901,48.153 12.096,48.572 12.432,48.857C12.768,49.142 41.774,74.577 71.879,80.359C71.985,80.382 72.093,80.394 72.202,80.394C73.025,80.394 73.702,79.717 73.702,78.894C73.702,78.163 73.167,77.533 72.445,77.414C43.618,71.877 14.402,46.596 14.402,46.596C14.139,46.36 13.8,46.224 13.447,46.213Z" style="fill:rgb(229,115,115);fill-rule:nonzero;stroke:rgb(219,68,55);stroke-width:1px;stroke-linejoin:miter;"/>
                    <path d="M11.72,49.281C11.705,49.281 11.69,49.28 11.675,49.28C10.852,49.28 10.175,49.957 10.175,50.78C10.175,51.222 10.37,51.641 10.707,51.926C11.044,52.211 40.049,77.645 70.154,83.428C70.247,83.446 70.342,83.455 70.438,83.455C71.26,83.455 71.938,82.778 71.938,81.955C71.938,81.239 71.424,80.617 70.721,80.482C41.894,74.945 12.676,49.664 12.676,49.664C12.413,49.428 12.074,49.292 11.721,49.281L11.72,49.281Z" style="fill:rgb(229,115,115);fill-rule:nonzero;stroke:rgb(219,68,55);stroke-width:1px;stroke-linejoin:miter;"/>
                    <path d="M10.57,52.734C10.554,52.734 10.539,52.733 10.523,52.733C9.7,52.733 9.023,53.41 9.023,54.233C9.023,54.675 9.218,55.094 9.555,55.379C9.892,55.664 38.899,81.096 69.004,86.879C69.112,86.903 69.222,86.915 69.332,86.915C70.155,86.915 70.832,86.238 70.832,85.415C70.832,84.681 70.293,84.049 69.568,83.934C40.741,78.396 11.525,53.115 11.525,53.115C11.261,52.88 10.923,52.745 10.57,52.735L10.57,52.734Z" style="fill:rgb(255,147,101);fill-rule:nonzero;stroke:rgb(237,108,48);stroke-width:1px;stroke-linejoin:miter;"/>
                    <path d="M9.037,55.898C9.021,55.897 9.005,55.897 8.989,55.897C8.166,55.897 7.489,56.574 7.489,57.397C7.489,57.839 7.684,58.258 8.021,58.543C8.358,58.828 37.364,84.26 67.469,90.043C67.575,90.066 67.683,90.078 67.792,90.078C68.615,90.078 69.292,89.401 69.292,88.578C69.292,87.847 68.757,87.217 68.035,87.098C39.208,81.56 9.992,56.279 9.992,56.279C9.728,56.044 9.39,55.909 9.037,55.899L9.037,55.898Z" style="fill:rgb(255,147,101);fill-rule:nonzero;stroke:rgb(237,108,48);stroke-width:1px;stroke-linejoin:miter;"/>
                </g>
            </g>
        </g>
        <path d="M89.27,25.18L71.148,52.89" style="fill:none;fill-rule:nonzero;stroke:rgb(135,135,135);stroke-width:2px;stroke-linejoin:miter;"/>
        <circle cx="89.27" cy="25.18" r="3.883" style="fill:rgb(214,214,214);"/>
        <path d="M24.615,31.444L37.827,51.647" style="fill:none;fill-rule:nonzero;stroke:rgb(135,135,135);stroke-width:1.46px;stroke-linejoin:miter;"/>
        <g transform="matrix(-1,0,0,1,0,0)">
            <circle cx="-24.888" cy="31.718" r="3.883" style="fill:rgb(214,214,214);"/>
        </g>
    </g>
</svg>
