<?xml version="1.0" encoding="UTF-8" standalone="no"?>
<!DOCTYPE svg PUBLIC "-//W3C//DTD SVG 1.1//EN" "http://www.w3.org/Graphics/SVG/1.1/DTD/svg11.dtd">
<svg width="100%" height="100%" viewBox="0 0 128 128" version="1.1" xmlns="http://www.w3.org/2000/svg" xmlns:xlink="http://www.w3.org/1999/xlink" xml:space="preserve" xmlns:serif="http://www.serif.com/" style="fill-rule:evenodd;clip-rule:evenodd;stroke-linecap:round;stroke-miterlimit:10;">
    <path d="M72.53,124.17L55.9,124.17L55.9,5.36C55.9,4.61 56.51,4 57.26,4L71.17,4C71.92,4 72.53,4.61 72.53,5.36L72.53,124.17Z" style="fill:rgb(109,74,65);fill-rule:nonzero;"/>
    <g>
        <g transform="matrix(1,0,0,1,0.14,-0.362264)">
            <path d="M106.27,86.67L17.45,86.67C16.89,86.67 16.44,86.22 16.44,85.66L16.44,14.01C16.44,13.45 16.89,13 17.45,13L106.27,13C106.83,13 107.28,13.45 107.28,14.01L107.28,85.66C107.28,86.22 106.83,86.67 106.27,86.67Z" style="fill:rgb(224,224,224);fill-rule:nonzero;"/>
        </g>
        <g transform="matrix(1.21094,0,0,0.46961,-12.7875,5.14462)">
            <path d="M40.24,38.25L83.28,38.25" style="fill:none;fill-rule:nonzero;stroke:rgb(155,24,24);stroke-width:7.62px;"/>
        </g>
        <g transform="matrix(1.21094,0,0,0.46961,-13.3687,5.14462)">
            <path d="M40.72,60.75L83.76,60.75" style="fill:none;fill-rule:nonzero;stroke:rgb(230,81,0);stroke-width:7.62px;"/>
        </g>
        <g transform="matrix(1.21094,0,0,0.46961,-12.7875,26.227)">
            <path d="M40.24,38.25L83.28,38.25" style="fill:none;fill-rule:nonzero;stroke:rgb(246,142,50);stroke-width:7.62px;"/>
        </g>
        <g transform="matrix(1.21094,0,0,0.46961,-13.3687,26.227)">
            <path d="M40.72,60.75L83.76,60.75" style="fill:none;fill-rule:nonzero;stroke:rgb(72,118,40);stroke-width:7.62px;"/>
        </g>
        <g transform="matrix(1.21094,0,0,0.46961,-12.7875,47.3094)">
            <path d="M40.24,38.25L83.28,38.25" style="fill:none;fill-rule:nonzero;stroke:rgb(19,81,124);stroke-width:7.62px;"/>
        </g>
        <g transform="matrix(1.21094,0,0,0.46961,-13.3687,47.3094)">
            <path d="M40.72,60.75L83.76,60.75" style="fill:none;fill-rule:nonzero;stroke:rgb(104,37,144);stroke-width:7.62px;"/>
        </g>
    </g>
</svg>
