<?xml version="1.0" encoding="UTF-8" standalone="no"?>
<!DOCTYPE svg PUBLIC "-//W3C//DTD SVG 1.1//EN" "http://www.w3.org/Graphics/SVG/1.1/DTD/svg11.dtd">
<svg width="100%" height="100%" viewBox="0 0 128 128" version="1.1" xmlns="http://www.w3.org/2000/svg" xmlns:xlink="http://www.w3.org/1999/xlink" xml:space="preserve" xmlns:serif="http://www.serif.com/" style="fill-rule:evenodd;clip-rule:evenodd;stroke-linejoin:round;stroke-miterlimit:2;">
    <g>
        <g id="Ebene1" transform="matrix(0.969105,0.24665,-0.252736,0.993016,18.9443,-17.1873)">
            <clipPath id="_clip1">
                <path d="M83.816,45.109C81.253,43.51 77.577,41.603 77.858,35.794L100.074,10.669C101.584,8.189 102.282,5.84 102.282,5.84C106.962,8.555 112.532,15.943 107.894,23.56L97.519,40.598C94.795,45.071 90.959,45.792 90.959,45.792C86.936,51.968 39.956,126.123 39.956,126.123C36.011,132.601 32.237,134.707 26.945,133.685C22.619,132.846 20.977,131.059 20.977,131.059L62.906,62.7C68.989,52.709 77.498,53.959 83.816,45.109Z" clip-rule="nonzero"/>
            </clipPath>
            <g clip-path="url(#_clip1)">
                <rect x="2.415" y="3.502" width="125.585" height="22.219" style="fill:rgb(198,42,42);"/>
                <g transform="matrix(1,0,0,1,0,22.2189)">
                    <rect x="2.415" y="3.502" width="125.585" height="22.219" style="fill:rgb(237,108,48);"/>
                </g>
                <g transform="matrix(1,0,0,1,0,44.4377)">
                    <rect x="2.415" y="3.502" width="125.585" height="22.219" style="fill:rgb(255,179,0);"/>
                </g>
                <g transform="matrix(1,0,0,1,0,66.6566)">
                    <rect x="2.415" y="3.502" width="125.585" height="22.219" style="fill:rgb(111,160,59);"/>
                </g>
                <g transform="matrix(1,0,0,1,0,88.8755)">
                    <rect x="2.415" y="3.502" width="125.585" height="22.219" style="fill:rgb(25,108,162);"/>
                </g>
                <g transform="matrix(1,0,0,1,0,111.094)">
                    <rect x="2.415" y="3.502" width="125.585" height="22.219" style="fill:rgb(149,49,166);"/>
                </g>
            </g>
        </g>
        <g id="Ebene11" serif:id="Ebene1" transform="matrix(0.969105,0.24665,-0.252736,0.993016,18.9443,-17.1873)">
            <clipPath id="_clip2">
                <path d="M20.948,131.106C25.945,134.004 30.691,129.451 32.179,127.007C33.335,125.109 71.799,61.941 71.799,61.941C75.49,55.878 88.396,43.215 90.859,39.169L83.289,41.111C79.109,45.301 65.361,51.103 62.358,56.048C62.358,56.048 22.245,117.602 20.603,120.286C18.963,122.979 16.754,128.674 20.948,131.106Z" clip-rule="nonzero"/>
            </clipPath>
            <g clip-path="url(#_clip2)">
                <rect x="2.415" y="3.502" width="125.585" height="22.219" style="fill:rgb(227,95,92);"/>
                <g transform="matrix(1,0,0,1,0,22.2189)">
                    <rect x="2.415" y="3.502" width="125.585" height="22.219" style="fill:rgb(255,167,38);"/>
                </g>
                <g transform="matrix(1,0,0,1,0,44.4377)">
                    <rect x="2.415" y="3.502" width="125.585" height="22.219" style="fill:rgb(255,238,88);"/>
                </g>
                <g transform="matrix(1,0,0,1,0,66.6566)">
                    <rect x="2.415" y="3.502" width="125.585" height="22.219" style="fill:rgb(142,197,79);"/>
                </g>
                <g transform="matrix(1,0,0,1,0,88.8755)">
                    <rect x="2.415" y="3.502" width="125.585" height="22.219" style="fill:rgb(82,156,210);"/>
                </g>
                <g transform="matrix(1,0,0,1,0,111.094)">
                    <rect x="2.415" y="3.502" width="125.585" height="22.219" style="fill:rgb(181,111,193);"/>
                </g>
            </g>
        </g>
        <g id="Ebene12" serif:id="Ebene1" transform="matrix(0.969105,0.24665,-0.252736,0.993016,18.9443,-17.1873)">
            <clipPath id="_clip3">
                <path d="M80.368,40.749C86.373,44.232 90.812,39.726 92.177,37.484L104.993,16.435C106.359,14.193 107.527,8.898 102.275,5.852C98.87,3.878 94.178,5.154 91.924,8.856L79.117,29.902C77.742,32.147 76.329,38.399 80.368,40.749Z" clip-rule="nonzero"/>
            </clipPath>
            <g clip-path="url(#_clip3)">
                <rect x="2.415" y="3.502" width="125.585" height="22.219" style="fill:rgb(227,95,92);"/>
                <g transform="matrix(1,0,0,1,0,22.2189)">
                    <rect x="2.415" y="3.502" width="125.585" height="22.219" style="fill:rgb(255,167,38);"/>
                </g>
                <g transform="matrix(1,0,0,1,0,44.4377)">
                    <rect x="2.415" y="3.502" width="125.585" height="22.219" style="fill:rgb(255,238,88);"/>
                </g>
                <g transform="matrix(1,0,0,1,0,66.6566)">
                    <rect x="2.415" y="3.502" width="125.585" height="22.219" style="fill:rgb(142,197,79);"/>
                </g>
                <g transform="matrix(1,0,0,1,0,88.8755)">
                    <rect x="2.415" y="3.502" width="125.585" height="22.219" style="fill:rgb(82,156,210);"/>
                </g>
                <g transform="matrix(1,0,0,1,0,111.094)">
                    <rect x="2.415" y="3.502" width="125.585" height="22.219" style="fill:rgb(181,111,193);"/>
                </g>
            </g>
        </g>
        <g>
            <g>
                <path d="M105.78,6.14L102.62,11.38C102.62,11.38 109.95,17.79 111.47,18.98C112.6,19.86 113.6,19.79 114.41,18.98C115.22,18.17 115.22,16.85 114.41,16.04C113.6,15.23 105.78,6.14 105.78,6.14Z" style="fill:rgb(134,168,180);fill-rule:nonzero;"/>
                <path d="M80.76,31.42L91.36,42.02L114.41,18.97L103.81,8.37L80.76,31.42Z" style="fill:rgb(134,168,180);fill-rule:nonzero;"/>
                <path d="M84.16,29.84L78.92,33C78.92,33 87.29,40.45 88.81,41.64C89.94,42.52 90.94,42.45 91.75,41.64C92.56,40.83 92.56,39.51 91.75,38.7C90.94,37.88 84.16,29.84 84.16,29.84Z" style="fill:rgb(134,168,180);fill-rule:nonzero;"/>
            </g>
            <path d="M105.29,8.54L102.16,13.77C102.16,13.77 110.7,21.39 112.23,22.58C113.36,23.46 114.36,23.39 115.17,22.58C115.98,21.77 115.98,20.45 115.17,19.64C114.36,18.83 105.29,8.54 105.29,8.54Z" style="fill:rgb(148,224,241);fill-rule:nonzero;"/>
            <path d="M102.18,13.04L97.98,17.24C97.98,17.24 106.87,25.22 108.4,26.4C109.53,27.28 110.53,27.21 111.34,26.4C112.15,25.59 112.15,24.27 111.34,23.46C110.53,22.65 102.18,13.04 102.18,13.04Z" style="fill:rgb(148,224,241);fill-rule:nonzero;"/>
            <path d="M98.3,16.82L94.1,21.02C94.1,21.02 103.05,29.05 104.57,30.23C105.7,31.11 106.7,31.04 107.51,30.23C108.32,29.42 108.32,28.1 107.51,27.29C106.7,26.48 98.3,16.82 98.3,16.82Z" style="fill:rgb(148,224,241);fill-rule:nonzero;"/>
            <path d="M93.99,20.17L89.79,24.37C89.79,24.37 99.22,32.88 100.74,34.06C101.87,34.94 102.87,34.87 103.68,34.06C104.49,33.25 104.49,31.93 103.68,31.12C102.87,30.31 93.99,20.17 93.99,20.17Z" style="fill:rgb(148,224,241);fill-rule:nonzero;"/>
            <path d="M90.17,24L85.97,28.2C85.97,28.2 95.4,36.71 96.92,37.89C98.05,38.77 99.05,38.7 99.86,37.89C100.67,37.08 100.67,35.76 99.86,34.95C99.05,34.14 90.17,24 90.17,24Z" style="fill:rgb(148,224,241);fill-rule:nonzero;"/>
            <path d="M87.25,28.73L81.6,31.74C81.6,31.74 91.57,40.52 93.09,41.71C94.22,42.59 95.22,42.52 96.03,41.71C96.84,40.9 96.84,39.58 96.03,38.77C95.22,37.96 87.25,28.73 87.25,28.73Z" style="fill:rgb(148,224,241);fill-rule:nonzero;"/>
            <path d="M79.33,29.45C79.54,28.53 78.62,26.87 79.4,25.83C80.03,24.99 80.55,25.14 81.17,25.14C82.11,25.14 82.91,24.34 82.91,23.4C82.91,22.79 83.03,22.2 83.41,21.82C83.79,21.44 84.38,21.32 84.99,21.32C85.93,21.32 86.73,20.52 86.73,19.58C86.73,18.97 86.85,18.38 87.23,18C87.61,17.62 88.2,17.5 88.81,17.5C89.75,17.5 90.55,16.7 90.55,15.76C90.55,15.15 90.67,14.56 91.05,14.18C91.43,13.8 92.02,13.68 92.63,13.68C93.57,13.68 94.37,12.88 94.37,11.94C94.37,11.33 94.49,10.74 94.87,10.36C95.25,9.98 95.84,9.86 96.45,9.86C97.39,9.86 98.19,9.06 98.19,8.12C98.19,7.51 98.32,6.67 99.04,6.22C100.19,5.52 101.42,6.42 102.33,6.42C103.29,6.42 104.36,4.87 105.58,6.01C106.74,7.09 105.55,8.56 105.65,9.26C105.74,9.88 106.56,11.23 105.93,12.43C105.44,13.36 104.35,13.66 103.74,13.67C102.8,13.67 102,14.47 102,15.41C102,16.02 101.88,16.61 101.5,16.99C101.12,17.37 100.53,17.49 99.92,17.49C98.98,17.49 98.18,18.29 98.18,19.23C98.18,19.84 98.06,20.43 97.68,20.81C97.3,21.19 96.71,21.31 96.1,21.31C95.16,21.31 94.36,22.11 94.36,23.05C94.36,23.66 94.24,24.25 93.86,24.63C93.48,25.01 92.89,25.13 92.28,25.13C91.34,25.13 90.54,25.93 90.54,26.87C90.54,27.48 90.42,28.07 90.04,28.45C89.66,28.83 89.07,28.95 88.46,28.95C87.52,28.95 86.72,29.75 86.72,30.69C86.72,31.3 86.48,32.18 85.92,32.57C84.13,33.82 82.9,32.08 82.04,32.4C81.45,32.62 79.89,34 78.75,32.77C77.5,31.43 79.23,29.92 79.33,29.45Z" style="fill:rgb(225,250,254);fill-rule:nonzero;"/>
        </g>
    </g>
</svg>
